<?xml version="1.0" encoding="UTF-8" standalone="no"?>
<!-- Created with Inkscape (http://www.inkscape.org/) -->

<svg
   version="1.1"
   id="svg1"
   width="1200"
   height="800.08002"
   viewBox="0 0 1200 800.08002"
   sodipodi:docname="personaj logo.ai"
   xmlns:inkscape="http://www.inkscape.org/namespaces/inkscape"
   xmlns:sodipodi="http://sodipodi.sourceforge.net/DTD/sodipodi-0.dtd"
   xmlns:xlink="http://www.w3.org/1999/xlink"
   xmlns="http://www.w3.org/2000/svg"
   xmlns:svg="http://www.w3.org/2000/svg">
  <defs
     id="defs1">
    <clipPath
       clipPathUnits="userSpaceOnUse"
       id="clipPath2">
      <path
         d="M 0,600.06 H 900 V 0 H 0 Z"
         transform="translate(-28.6807,-423.02991)"
         id="path2" />
    </clipPath>
    <clipPath
       clipPathUnits="userSpaceOnUse"
       id="clipPath4">
      <path
         d="M 0,600.06 H 900 V 0 H 0 Z"
         transform="translate(-219.9574,-535.38311)"
         id="path4" />
    </clipPath>
    <clipPath
       clipPathUnits="userSpaceOnUse"
       id="clipPath6">
      <path
         d="M 0,600.06 H 900 V 0 H 0 Z"
         transform="translate(-88.748905,-417.78861)"
         id="path6" />
    </clipPath>
    <clipPath
       clipPathUnits="userSpaceOnUse"
       id="clipPath8">
      <path
         d="M 0,600.06 H 900 V 0 H 0 Z"
         transform="translate(-32.557601,-422.39881)"
         id="path8" />
    </clipPath>
    <clipPath
       clipPathUnits="userSpaceOnUse"
       id="clipPath10">
      <path
         d="M 0,600.06 H 900 V 0 H 0 Z"
         transform="translate(-34.253201,-422.46041)"
         id="path10" />
    </clipPath>
    <clipPath
       clipPathUnits="userSpaceOnUse"
       id="clipPath12">
      <path
         d="M 0,600.06 H 900 V 0 H 0 Z"
         transform="translate(-77.459102,-320.81541)"
         id="path12" />
    </clipPath>
    <clipPath
       clipPathUnits="userSpaceOnUse"
       id="clipPath14">
      <path
         d="M 0,600.06 H 900 V 0 H 0 Z"
         transform="translate(-69.373601,-272.7562)"
         id="path14" />
    </clipPath>
    <clipPath
       clipPathUnits="userSpaceOnUse"
       id="clipPath16">
      <path
         d="M 0,600.06 H 900 V 0 H 0 Z"
         transform="translate(-57.147601,-386.53701)"
         id="path16" />
    </clipPath>
    <clipPath
       clipPathUnits="userSpaceOnUse"
       id="clipPath18">
      <path
         d="M 0,600.06 H 900 V 0 H 0 Z"
         transform="translate(-58.546402,-307.13061)"
         id="path18" />
    </clipPath>
    <clipPath
       clipPathUnits="userSpaceOnUse"
       id="clipPath20">
      <path
         d="M 0,600.06 H 900 V 0 H 0 Z"
         transform="translate(-51.679901,-342.56041)"
         id="path20" />
    </clipPath>
    <clipPath
       clipPathUnits="userSpaceOnUse"
       id="clipPath22">
      <path
         d="M 0,600.06 H 900 V 0 H 0 Z"
         transform="translate(-217.38051,-525.70401)"
         id="path22" />
    </clipPath>
    <clipPath
       clipPathUnits="userSpaceOnUse"
       id="clipPath24">
      <path
         d="M 0,600.06 H 900 V 0 H 0 Z"
         transform="translate(-266.1505,-515.31961)"
         id="path24" />
    </clipPath>
    <clipPath
       clipPathUnits="userSpaceOnUse"
       id="clipPath26">
      <path
         d="M 0,600.06 H 900 V 0 H 0 Z"
         transform="translate(-48.000701,-208.5382)"
         id="path26" />
    </clipPath>
    <clipPath
       clipPathUnits="userSpaceOnUse"
       id="clipPath28">
      <path
         d="M 0,600.06 H 900 V 0 H 0 Z"
         transform="translate(-266.23591,-197.0788)"
         id="path28" />
    </clipPath>
    <clipPath
       clipPathUnits="userSpaceOnUse"
       id="clipPath30">
      <path
         d="M 0,600.06 H 900 V 0 H 0 Z"
         transform="translate(-266.5828,-155.9383)"
         id="path30" />
    </clipPath>
    <clipPath
       clipPathUnits="userSpaceOnUse"
       id="clipPath32">
      <path
         d="M 0,600.06 H 900 V 0 H 0 Z"
         transform="translate(-266.1397,-156.9618)"
         id="path32" />
    </clipPath>
    <clipPath
       clipPathUnits="userSpaceOnUse"
       id="clipPath34">
      <path
         d="M 0,600.06 H 900 V 0 H 0 Z"
         transform="translate(-265.1926,-197.06661)"
         id="path34" />
    </clipPath>
    <clipPath
       clipPathUnits="userSpaceOnUse"
       id="clipPath36">
      <path
         d="M 0,600.06 H 900 V 0 H 0 Z"
         transform="translate(-267.0649,-154.1112)"
         id="path36" />
    </clipPath>
    <clipPath
       clipPathUnits="userSpaceOnUse"
       id="clipPath38">
      <path
         d="M 0,600.06 H 900 V 0 H 0 Z"
         transform="translate(-460.94291,-259.46931)"
         id="path38" />
    </clipPath>
    <clipPath
       clipPathUnits="userSpaceOnUse"
       id="clipPath40">
      <path
         d="M 0,600.06 H 900 V 0 H 0 Z"
         transform="translate(-456.83491,-298.9774)"
         id="path40" />
    </clipPath>
    <clipPath
       clipPathUnits="userSpaceOnUse"
       id="clipPath42">
      <path
         d="M 0,600.06 H 900 V 0 H 0 Z"
         transform="translate(-99.707005,-433.91611)"
         id="path42" />
    </clipPath>
    <clipPath
       clipPathUnits="userSpaceOnUse"
       id="clipPath44">
      <path
         d="M 0,600.06 H 900 V 0 H 0 Z"
         transform="translate(-160.4736,-468.10621)"
         id="path44" />
    </clipPath>
    <clipPath
       clipPathUnits="userSpaceOnUse"
       id="clipPath46">
      <path
         d="M 0,600.06 H 900 V 0 H 0 Z"
         transform="translate(-89.804905,-417.13221)"
         id="path46" />
    </clipPath>
    <clipPath
       clipPathUnits="userSpaceOnUse"
       id="clipPath48">
      <path
         d="M 0,600.06 H 900 V 0 H 0 Z"
         transform="translate(-124.88661,-465.23751)"
         id="path48" />
    </clipPath>
    <clipPath
       clipPathUnits="userSpaceOnUse"
       id="clipPath50">
      <path
         d="M 0,600.06 H 900 V 0 H 0 Z"
         transform="translate(-167.0062,-490.90861)"
         id="path50" />
    </clipPath>
    <clipPath
       clipPathUnits="userSpaceOnUse"
       id="clipPath52">
      <path
         d="M 0,600.06 H 900 V 0 H 0 Z"
         transform="translate(-55.293001,-428.93211)"
         id="path52" />
    </clipPath>
    <clipPath
       clipPathUnits="userSpaceOnUse"
       id="clipPath54">
      <path
         d="M 0,600.06 H 900 V 0 H 0 Z"
         transform="translate(-81.088705,-445.45071)"
         id="path54" />
    </clipPath>
    <clipPath
       clipPathUnits="userSpaceOnUse"
       id="clipPath56">
      <path
         d="M 0,600.06 H 900 V 0 H 0 Z"
         transform="translate(-34.370701,-421.68901)"
         id="path56" />
    </clipPath>
    <clipPath
       clipPathUnits="userSpaceOnUse"
       id="clipPath58">
      <path
         d="M 0,600.06 H 900 V 0 H 0 Z"
         transform="translate(-274.4407,-185.09481)"
         id="path58" />
    </clipPath>
    <clipPath
       clipPathUnits="userSpaceOnUse"
       id="clipPath60">
      <path
         d="M 0,600.06 H 900 V 0 H 0 Z"
         transform="translate(-285.51231,-179.61111)"
         id="path60" />
    </clipPath>
    <clipPath
       clipPathUnits="userSpaceOnUse"
       id="clipPath62">
      <path
         d="M 0,600.06 H 900 V 0 H 0 Z"
         transform="translate(-460.35851,-274.41181)"
         id="path62" />
    </clipPath>
    <clipPath
       clipPathUnits="userSpaceOnUse"
       id="clipPath64">
      <path
         d="M 0,600.06 H 900 V 0 H 0 Z"
         transform="translate(-458.40071,-288.277)"
         id="path64" />
    </clipPath>
    <clipPath
       clipPathUnits="userSpaceOnUse"
       id="clipPath66">
      <path
         d="M 0,600.06 H 900 V 0 H 0 Z"
         transform="translate(-433.94821,-281.40441)"
         id="path66" />
    </clipPath>
    <clipPath
       clipPathUnits="userSpaceOnUse"
       id="clipPath68">
      <path
         d="M 0,600.06 H 900 V 0 H 0 Z"
         transform="translate(-253.567,-194.8969)"
         id="path68" />
    </clipPath>
    <clipPath
       clipPathUnits="userSpaceOnUse"
       id="clipPath70">
      <path
         d="M 0,600.06 H 900 V 0 H 0 Z"
         transform="translate(-122.79921,-221.04751)"
         id="path70" />
    </clipPath>
    <clipPath
       clipPathUnits="userSpaceOnUse"
       id="clipPath72">
      <path
         d="M 0,600.06 H 900 V 0 H 0 Z"
         transform="translate(-255.69651,-183.0841)"
         id="path72" />
    </clipPath>
    <clipPath
       clipPathUnits="userSpaceOnUse"
       id="clipPath74">
      <path
         d="M 0,600.06 H 900 V 0 H 0 Z"
         transform="translate(-227.19181,-189.1828)"
         id="path74" />
    </clipPath>
    <clipPath
       clipPathUnits="userSpaceOnUse"
       id="clipPath76">
      <path
         d="M 0,600.06 H 900 V 0 H 0 Z"
         transform="translate(-138.1806,-205.4428)"
         id="path76" />
    </clipPath>
    <clipPath
       clipPathUnits="userSpaceOnUse"
       id="clipPath78">
      <path
         d="M 0,600.06 H 900 V 0 H 0 Z"
         transform="translate(-253.43451,-173.1034)"
         id="path78" />
    </clipPath>
    <clipPath
       clipPathUnits="userSpaceOnUse"
       id="clipPath80">
      <path
         d="M 0,600.06 H 900 V 0 H 0 Z"
         transform="translate(-202.04881,-178.8462)"
         id="path80" />
    </clipPath>
    <clipPath
       clipPathUnits="userSpaceOnUse"
       id="clipPath82">
      <path
         d="M 0,600.06 H 900 V 0 H 0 Z"
         transform="translate(-503.71441,-201.1879)"
         id="path82" />
    </clipPath>
    <clipPath
       clipPathUnits="userSpaceOnUse"
       id="clipPath84">
      <path
         d="M 0,600.06 H 900 V 0 H 0 Z"
         transform="translate(-743.23052,-95.024605)"
         id="path84" />
    </clipPath>
    <clipPath
       clipPathUnits="userSpaceOnUse"
       id="clipPath86">
      <path
         d="M 0,600.06 H 900 V 0 H 0 Z"
         transform="translate(-176.3847,-253.9474)"
         id="path86" />
    </clipPath>
    <clipPath
       clipPathUnits="userSpaceOnUse"
       id="clipPath88">
      <path
         d="M 0,600.06 H 900 V 0 H 0 Z"
         transform="translate(-164.28921,-261.58651)"
         id="path88" />
    </clipPath>
    <clipPath
       clipPathUnits="userSpaceOnUse"
       id="clipPath90">
      <path
         d="M 0,600.06 H 900 V 0 H 0 Z"
         transform="translate(-271.42201,-357.02121)"
         id="path90" />
    </clipPath>
    <clipPath
       clipPathUnits="userSpaceOnUse"
       id="clipPath92">
      <path
         d="M 0,600.06 H 900 V 0 H 0 Z"
         transform="translate(-433.74581,-271.5448)"
         id="path92" />
    </clipPath>
    <clipPath
       clipPathUnits="userSpaceOnUse"
       id="clipPath94">
      <path
         d="M 0,600.06 H 900 V 0 H 0 Z"
         transform="translate(-245.76741,-319.35311)"
         id="path94" />
    </clipPath>
    <clipPath
       clipPathUnits="userSpaceOnUse"
       id="clipPath96">
      <path
         d="M 0,600.06 H 900 V 0 H 0 Z"
         transform="translate(-211.1026,-362.04771)"
         id="path96" />
    </clipPath>
    <clipPath
       clipPathUnits="userSpaceOnUse"
       id="clipPath98">
      <path
         d="M 0,600.06 H 900 V 0 H 0 Z"
         transform="translate(-224.2864,-356.74001)"
         id="path98" />
    </clipPath>
    <clipPath
       clipPathUnits="userSpaceOnUse"
       id="clipPath100">
      <path
         d="M 0,600.06 H 900 V 0 H 0 Z"
         transform="translate(-179.75961,-303.02551)"
         id="path100" />
    </clipPath>
    <clipPath
       clipPathUnits="userSpaceOnUse"
       id="clipPath102">
      <path
         d="M 0,600.06 H 900 V 0 H 0 Z"
         transform="translate(-247.46211,-295.5796)"
         id="path102" />
    </clipPath>
    <clipPath
       clipPathUnits="userSpaceOnUse"
       id="clipPath104">
      <path
         d="M 0,600.06 H 900 V 0 H 0 Z"
         transform="translate(-224.61631,-278.51911)"
         id="path104" />
    </clipPath>
    <clipPath
       clipPathUnits="userSpaceOnUse"
       id="clipPath106">
      <path
         d="M 0,600.06 H 900 V 0 H 0 Z"
         transform="translate(-220.0927,-303.85051)"
         id="path106" />
    </clipPath>
    <clipPath
       clipPathUnits="userSpaceOnUse"
       id="clipPath108">
      <path
         d="M 0,600.06 H 900 V 0 H 0 Z"
         transform="translate(-187.2072,-310.13961)"
         id="path108" />
    </clipPath>
    <clipPath
       clipPathUnits="userSpaceOnUse"
       id="clipPath110">
      <path
         d="M 0,600.06 H 900 V 0 H 0 Z"
         transform="translate(-217.38711,-314.74291)"
         id="path110" />
    </clipPath>
    <clipPath
       clipPathUnits="userSpaceOnUse"
       id="clipPath112">
      <path
         d="M 0,600.06 H 900 V 0 H 0 Z"
         transform="translate(-202.32091,-342.04941)"
         id="path112" />
    </clipPath>
    <clipPath
       clipPathUnits="userSpaceOnUse"
       id="clipPath114">
      <path
         d="M 0,600.06 H 900 V 0 H 0 Z"
         transform="translate(-193.0011,-333.50441)"
         id="path114" />
    </clipPath>
    <clipPath
       clipPathUnits="userSpaceOnUse"
       id="clipPath116">
      <path
         d="M 0,600.06 H 900 V 0 H 0 Z"
         transform="translate(-231.08601,-359.71411)"
         id="path116" />
    </clipPath>
    <clipPath
       clipPathUnits="userSpaceOnUse"
       id="clipPath118">
      <path
         d="M 0,600.06 H 900 V 0 H 0 Z"
         transform="translate(-169.7308,-308.34281)"
         id="path118" />
    </clipPath>
    <clipPath
       clipPathUnits="userSpaceOnUse"
       id="clipPath120">
      <path
         d="M 0,600.06 H 900 V 0 H 0 Z"
         transform="translate(-211.17841,-335.95031)"
         id="path120" />
    </clipPath>
    <clipPath
       clipPathUnits="userSpaceOnUse"
       id="clipPath122">
      <path
         d="M 0,600.06 H 900 V 0 H 0 Z"
         transform="translate(-567.44711,-236.3275)"
         id="path122" />
    </clipPath>
    <clipPath
       clipPathUnits="userSpaceOnUse"
       id="clipPath124">
      <path
         d="M 0,600.06 H 900 V 0 H 0 Z"
         transform="translate(-408.28921,-178.17591)"
         id="path124" />
    </clipPath>
    <clipPath
       clipPathUnits="userSpaceOnUse"
       id="clipPath126">
      <path
         d="M 0,600.06 H 900 V 0 H 0 Z"
         transform="translate(-508.81912,-160.7734)"
         id="path126" />
    </clipPath>
    <clipPath
       clipPathUnits="userSpaceOnUse"
       id="clipPath128">
      <path
         d="M 0,600.06 H 900 V 0 H 0 Z"
         transform="translate(-657.47261,-153.7711)"
         id="path128" />
    </clipPath>
    <clipPath
       clipPathUnits="userSpaceOnUse"
       id="clipPath130">
      <path
         d="M 0,600.06 H 900 V 0 H 0 Z"
         transform="translate(-622.00181,-161.0347)"
         id="path130" />
    </clipPath>
    <clipPath
       clipPathUnits="userSpaceOnUse"
       id="clipPath132">
      <path
         d="M 0,600.06 H 900 V 0 H 0 Z"
         transform="translate(-573.82642,-190.599)"
         id="path132" />
    </clipPath>
    <clipPath
       clipPathUnits="userSpaceOnUse"
       id="clipPath134">
      <path
         d="M 0,600.06 H 900 V 0 H 0 Z"
         transform="translate(-582.41962,-184.5129)"
         id="path134" />
    </clipPath>
    <clipPath
       clipPathUnits="userSpaceOnUse"
       id="clipPath136">
      <path
         d="M 0,600.06 H 900 V 0 H 0 Z"
         transform="translate(-592.17251,-181.56021)"
         id="path136" />
    </clipPath>
    <clipPath
       clipPathUnits="userSpaceOnUse"
       id="clipPath138">
      <path
         d="M 0,600.06 H 900 V 0 H 0 Z"
         transform="translate(-603.00452,-179.9899)"
         id="path138" />
    </clipPath>
    <clipPath
       clipPathUnits="userSpaceOnUse"
       id="clipPath140">
      <path
         d="M 0,600.06 H 900 V 0 H 0 Z"
         transform="translate(-604.43482,-178.279)"
         id="path140" />
    </clipPath>
    <clipPath
       clipPathUnits="userSpaceOnUse"
       id="clipPath142">
      <path
         d="M 0,600.06 H 900 V 0 H 0 Z"
         transform="translate(-745.14422,-91.798802)"
         id="path142" />
    </clipPath>
    <clipPath
       clipPathUnits="userSpaceOnUse"
       id="clipPath144">
      <path
         d="M 0,600.06 H 900 V 0 H 0 Z"
         transform="translate(-757.34424,-74.480304)"
         id="path144" />
    </clipPath>
    <clipPath
       clipPathUnits="userSpaceOnUse"
       id="clipPath146">
      <path
         d="M 0,600.06 H 900 V 0 H 0 Z"
         transform="translate(-843.0217,-120.0802)"
         id="path146" />
    </clipPath>
    <clipPath
       clipPathUnits="userSpaceOnUse"
       id="clipPath148">
      <path
         d="M 0,600.06 H 900 V 0 H 0 Z"
         transform="translate(-795.47829,-118.25451)"
         id="path148" />
    </clipPath>
    <clipPath
       clipPathUnits="userSpaceOnUse"
       id="clipPath150">
      <path
         d="M 0,600.06 H 900 V 0 H 0 Z"
         transform="translate(-805.25852,-118.0737)"
         id="path150" />
    </clipPath>
    <clipPath
       clipPathUnits="userSpaceOnUse"
       id="clipPath152">
      <path
         d="M 0,600.06 H 900 V 0 H 0 Z"
         transform="translate(-814.8817,-121.4158)"
         id="path152" />
    </clipPath>
    <clipPath
       clipPathUnits="userSpaceOnUse"
       id="clipPath154">
      <path
         d="M 0,600.06 H 900 V 0 H 0 Z"
         transform="translate(-823.5778,-125.0421)"
         id="path154" />
    </clipPath>
    <clipPath
       clipPathUnits="userSpaceOnUse"
       id="clipPath156">
      <path
         d="M 0,600.06 H 900 V 0 H 0 Z"
         transform="translate(-796.84022,-117.4128)"
         id="path156" />
    </clipPath>
    <clipPath
       clipPathUnits="userSpaceOnUse"
       id="clipPath158">
      <path
         d="M 0,600.06 H 900 V 0 H 0 Z"
         transform="translate(-387.42621,-185.9158)"
         id="path158" />
    </clipPath>
    <clipPath
       clipPathUnits="userSpaceOnUse"
       id="clipPath160">
      <path
         d="M 0,600.06 H 900 V 0 H 0 Z"
         transform="translate(-365.71001,-193.3383)"
         id="path160" />
    </clipPath>
    <clipPath
       clipPathUnits="userSpaceOnUse"
       id="clipPath162">
      <path
         d="M 0,600.06 H 900 V 0 H 0 Z"
         transform="translate(-431.39721,-272.24121)"
         id="path162" />
    </clipPath>
  </defs>
  <sodipodi:namedview
     id="namedview1"
     pagecolor="#ffffff"
     bordercolor="#000000"
     borderopacity="0.25"
     inkscape:showpageshadow="2"
     inkscape:pageopacity="0.0"
     inkscape:pagecheckerboard="0"
     inkscape:deskcolor="#d1d1d1">
    <inkscape:page
       x="0"
       y="0"
       inkscape:label="1"
       id="page1"
       width="1200"
       height="800.08002"
       margin="85.37307 33.741333 85.373337"
       bleed="0" />
  </sodipodi:namedview>
  <g
     id="layer-MC0"
     inkscape:groupmode="layer"
     inkscape:label="Layer 1">
    <path
       id="path1"
       d="m 0,0 c 0,0 16.203,-215.486 17.285,-216.789 1.081,-1.303 224.644,-58.108 224.644,-58.108 l 194.349,110.115 c 0,0 -9.89,33.57 -13.558,38.561 -3.669,4.99 -95.66,63.459 -181.061,45.42 0,0 22.617,116.128 -4.189,173.091 l -64.396,10.571 z"
       style="fill:#ffffff;fill-opacity:1;fill-rule:nonzero;stroke:none"
       transform="matrix(1.3333333,0,0,-1.3333333,38.240933,236.04013)"
       clip-path="url(#clipPath2)" />
    <path
       id="path3"
       d="m 0,0 c 0,0 -39.838,-12.597 -59.962,-27.42 -20.124,-14.822 -134.689,-82.975 -134.689,-82.975 l 14.813,-205.304 c 0,0 -1.805,-15.999 12.455,-18.776 14.261,-2.777 218.145,-55.594 218.145,-55.594 l 206.5,113.308 -19.581,5.586 1.96,-2.686 -191.745,-105.946 -10.077,2.512 -204.348,50.37 -5.707,7.19 -11.906,204.807 176.888,104.959 15.669,-1.142 c 0,0 -3.369,12.359 -5.892,11.735 z"
       style="fill:#55c3be;fill-opacity:1;fill-rule:nonzero;stroke:none"
       transform="matrix(1.3333333,0,0,-1.3333333,293.27653,86.235867)"
       clip-path="url(#clipPath4)" />
    <path
       id="path5"
       d="m 0,0 c 1.397,-18.499 4.58,-36.142 4.769,-54.777 0.19,-18.731 -1.279,-37.521 -4.628,-55.957 -3.289,-18.102 -8.395,-35.876 -15.682,-52.783 -7.146,-16.579 -18.697,-30.058 -26.75,-45.873 -0.751,-1.475 1.272,-2.769 2.458,-1.85 12.697,9.825 21.058,27.801 27.555,42.172 8.019,17.736 13.546,36.571 17.1,55.69 6.629,35.66 9.291,78.805 -3.096,113.551 C 1.41,1.059 -0.021,0.287 0.043,-0.565 Z"
       style="fill:#3d2b5e;fill-opacity:1;fill-rule:nonzero;stroke:none"
       transform="matrix(1.3333333,0,0,-1.3333333,118.33187,243.02853)"
       clip-path="url(#clipPath6)" />
    <path
       id="path7"
       d="m 0,0 c 6.913,-31.632 6.351,-66.522 8.14,-98.709 1.225,-22.052 2.235,-44.121 2.843,-66.199 0.434,-15.77 -1.114,-32.159 0.293,-47.829 0.23,-2.555 3.734,-2.183 4.234,0.024 3.206,14.175 0.811,31.368 0.444,45.777 -0.586,22.986 -1.623,45.963 -2.92,68.919 -1.223,21.631 -2.528,43.29 -4.693,64.85 C 7.266,-22.461 7.168,-9.249 2.626,0.74 2.007,2.101 -0.343,1.568 0,0"
       style="fill:#3d2b5e;fill-opacity:1;fill-rule:nonzero;stroke:none"
       transform="matrix(1.3333333,0,0,-1.3333333,43.410133,236.8816)"
       clip-path="url(#clipPath8)" />
    <path
       id="path9"
       d="m 0,0 c 1.699,-1.404 3.444,-2.749 5.235,-4.035 0.201,-0.15 0.528,-0.165 0.724,0.008 3.168,2.809 12.095,-1.455 13.694,-3.174 0.342,-0.368 1.12,-0.411 1.288,0.182 1.237,4.365 11.874,2.463 14.383,2.081 3.636,-0.554 3.061,1.327 5.234,-3.667 0.278,-0.637 1.399,-0.737 1.617,0.017 0.012,0.041 12.538,3.164 13.227,1.103 0.297,-0.889 0.212,0.006 0.195,0.792 -0.007,0.363 -0.015,0.726 -0.023,1.088 -0.006,0.325 -0.294,0.606 -0.567,0.73 -3.08,1.393 -7.396,0.543 -10.702,0.304 -4.414,-0.319 -2.013,-3.592 -4.576,2.169 -0.22,0.496 -0.881,0.683 -1.312,0.33 -4.09,-3.353 -11.973,0.012 -16.698,-0.025 -0.747,-0.006 -1.088,-2.024 -1.531,-2.088 -1.765,-0.254 -0.471,1.392 -2.167,1.386 C 13.191,-2.816 4.795,-2.185 0.507,0.673 0.057,0.973 -0.427,0.341 0,0"
       style="fill:#3d2b5e;fill-opacity:1;fill-rule:nonzero;stroke:none"
       transform="matrix(1.3333333,0,0,-1.3333333,45.670933,236.79947)"
       clip-path="url(#clipPath10)" />
    <path
       id="path11"
       d="M 0,0 C 6.621,30.124 5.852,63.061 -0.144,93.232 -0.401,94.526 -2.393,94.266 -2.188,92.943 2.679,61.582 2.428,31.603 -0.659,0.085 -0.701,-0.347 -0.091,-0.413 0,0"
       style="fill:#3d2b5e;fill-opacity:1;fill-rule:nonzero;stroke:none"
       transform="matrix(1.3333333,0,0,-1.3333333,103.2788,372.32613)"
       clip-path="url(#clipPath12)" />
    <path
       id="path13"
       d="m 0,0 c 3.195,23.307 2.924,47.475 2.281,70.957 -0.682,24.888 1.488,49.313 -3.609,73.937 -0.311,1.5 -2.695,1.162 -2.362,-0.334 C 6.803,97.433 -1.429,47.772 -0.517,-0.003 -0.512,-0.304 -0.039,-0.283 0,0"
       style="fill:#3d2b5e;fill-opacity:1;fill-rule:nonzero;stroke:none"
       transform="matrix(1.3333333,0,0,-1.3333333,92.498133,436.40507)"
       clip-path="url(#clipPath14)" />
    <path
       id="path15"
       d="M 0,0 C 0.274,-24.212 1.335,-48.257 0.544,-72.466 0.529,-72.927 1.177,-73.023 1.262,-72.559 5.549,-49.266 1.979,-23.369 0.54,0.076 0.519,0.433 -0.004,0.342 0,0"
       style="fill:#3d2b5e;fill-opacity:1;fill-rule:nonzero;stroke:none"
       transform="matrix(1.3333333,0,0,-1.3333333,76.1968,284.69733)"
       clip-path="url(#clipPath16)" />
    <path
       id="path17"
       d="m 0,0 c -1.777,-31.43 2.502,-66.328 -11.243,-95.572 -0.691,-1.47 1.718,-2.468 2.339,-0.958 C 3.406,-66.585 1.118,-31.748 0.365,0.002 0.36,0.208 0.012,0.206 0,0"
       style="fill:#3d2b5e;fill-opacity:1;fill-rule:nonzero;stroke:none"
       transform="matrix(1.3333333,0,0,-1.3333333,78.061867,390.57253)"
       clip-path="url(#clipPath18)" />
    <path
       id="path19"
       d="M 0,0 C 2.488,24.845 1.937,50.978 -1.745,75.67 -1.931,76.918 -3.771,76.639 -3.672,75.398 -1.649,50.153 -0.52,25.408 -0.436,0.056 -0.435,-0.217 -0.029,-0.29 0,0"
       style="fill:#3d2b5e;fill-opacity:1;fill-rule:nonzero;stroke:none"
       transform="matrix(1.3333333,0,0,-1.3333333,68.906533,343.3328)"
       clip-path="url(#clipPath20)" />
    <path
       id="path21"
       d="m 0,0 c -0.298,-1.124 -0.596,-2.248 -0.894,-3.372 -0.24,-0.908 0.321,-2.045 1.429,-1.836 -0.164,-0.031 26.182,0.087 48.72,-6.058 1.713,-0.467 2.095,2.427 0.354,2.731 -3.285,0.572 -38.565,7.248 -38.734,6.555 0.201,0.824 -0.752,1.76 -1.571,1.553 C 8.682,-0.585 1.712,-3.31 1.843,-0.488 1.89,0.514 0.298,1.125 0,0"
       style="fill:#3d2b5e;fill-opacity:1;fill-rule:nonzero;stroke:none"
       transform="matrix(1.3333333,0,0,-1.3333333,289.84067,99.141333)"
       clip-path="url(#clipPath22)" />
    <path
       id="path23"
       d="m 0,0 c 5.647,-29.467 12.7,-56.515 11.715,-86.857 -0.898,-27.668 -0.994,-55.975 -6.985,-83.098 -0.576,-2.611 3.556,-3.129 4.12,-0.533 6.369,29.304 6.595,60.468 6.822,90.372 C 15.882,-52.557 9.608,-20.758 1.844,0.999 1.561,1.79 -0.158,0.827 0,0"
       style="fill:#3d2b5e;fill-opacity:1;fill-rule:nonzero;stroke:none"
       transform="matrix(1.3333333,0,0,-1.3333333,354.86733,112.9872)"
       clip-path="url(#clipPath24)" />
    <path
       id="path25"
       d="m 0,0 c 39.909,18.019 77.336,44.588 114.746,67.251 19.281,11.681 38.524,23.417 57.699,35.269 17.725,10.956 37.339,19.632 54.115,31.992 2.706,1.994 -0.533,6.093 -3.24,4.095 -16.033,-11.83 -34.899,-20.143 -51.875,-30.659 C 152.294,96.085 133.14,84.225 113.973,72.389 76.09,48.994 34.756,28.106 -0.629,1.05 -1.181,0.627 -0.641,-0.29 0,0"
       style="fill:#3d2b5e;fill-opacity:1;fill-rule:nonzero;stroke:none"
       transform="matrix(1.3333333,0,0,-1.3333333,64.000933,522.02907)"
       clip-path="url(#clipPath26)" />
    <path
       id="path27"
       d="m 0,0 c -30.531,24.43 -67.993,36.051 -106.884,37.348 -37.227,1.242 -77.56,-3.164 -109.369,-24.161 -0.91,-0.601 -1.044,-1.879 -0.707,-2.814 0.044,-0.123 0.089,-0.247 0.134,-0.371 0.443,-1.231 1.937,-1.613 3.056,-1.207 l 0.371,0.135 c 2.532,0.919 1.199,4.483 -1.219,4.324 2.435,-2.405 4.732,-2.671 6.891,-0.798 2.014,1.142 4.065,2.214 6.154,3.217 4.147,2.023 8.411,3.833 12.729,5.458 9.192,3.459 18.726,5.945 28.368,7.772 18.97,3.596 38.395,4.461 57.66,3.68 18.453,-0.748 36.077,-4.544 53.809,-9.566 C -31.034,17.926 -16.836,7.603 -0.454,-0.798 0.028,-1.045 0.396,-0.317 0,0"
       style="fill:#3d2b5e;fill-opacity:1;fill-rule:nonzero;stroke:none"
       transform="matrix(1.3333333,0,0,-1.3333333,354.9812,537.30827)"
       clip-path="url(#clipPath28)" />
    <path
       id="path29"
       d="m 0,0 c -38.714,7.71 -77.175,20.29 -115.496,29.924 -23.289,5.854 -46.573,11.735 -69.916,17.367 -10.522,2.539 -23.285,7.61 -34.279,7.213 -3.049,-0.11 -2.363,-4.808 0.664,-4.699 11.187,0.403 25.227,-5.335 36.127,-7.954 23.222,-5.58 46.39,-11.384 69.566,-17.151 C -76.23,15.469 -38.2,3.36 -0.07,-0.541 0.283,-0.578 0.342,-0.068 0,0"
       style="fill:#3d2b5e;fill-opacity:1;fill-rule:nonzero;stroke:none"
       transform="matrix(1.3333333,0,0,-1.3333333,355.44373,592.16227)"
       clip-path="url(#clipPath30)" />
    <path
       id="path31"
       d="m 0,0 c -0.06,0.718 -1.463,4.924 -0.291,5.232 0.333,0.087 0.691,0.463 0.471,0.84 -1.239,2.121 0.28,4.459 0.293,7.142 0.01,2.258 -3.16,15.7 -1.545,16.531 0.828,0.426 0.774,1.483 -0.02,1.902 -0.426,0.625 -0.852,1.25 -1.279,1.876 1.109,-0.068 1.584,1.2 0.785,1.925 -0.177,0.161 2.249,4.083 1.725,3.173 0.79,1.372 -1.115,2.478 -1.903,1.081 -0.896,-0.957 -1.792,-1.914 -2.688,-2.872 -0.616,-0.427 -0.465,-1.282 0.021,-1.716 0.517,-0.461 1.035,-0.922 1.552,-1.384 l 0.784,1.926 c -4.819,0.253 -2.596,-4.496 0.221,-5.92 -0.007,0.634 -0.013,1.268 -0.02,1.902 C -2.553,31.284 -3.213,30.93 -3.872,30.576 -4.31,30.341 -4.692,29.749 -4.398,29.244 -1.685,24.572 0.564,12.259 -2.284,7.557 -2.51,7.183 -2.401,6.8 -2.019,6.593 -2.207,6.309 -2.395,6.024 -2.583,5.74 -2.927,5.627 -2.985,5.164 -2.793,4.907 -1.987,3.254 -1.181,1.6 -0.376,-0.053 -0.319,-0.288 0.021,-0.247 0,0"
       style="fill:#3d2b5e;fill-opacity:1;fill-rule:nonzero;stroke:none"
       transform="matrix(1.3333333,0,0,-1.3333333,354.85293,590.7976)"
       clip-path="url(#clipPath32)" />
    <path
       id="path33"
       d="m 0,0 c 32.8,10.715 63.195,29.858 93.267,46.449 31.592,17.43 65.76,36.455 97.347,53.893 1.437,0.793 -2.145,1.571 -3.6,0.768 C 124.925,66.833 63.377,31.968 -0.557,1.285 -1.381,0.89 -0.848,-0.277 0,0"
       style="fill:#3d2b5e;fill-opacity:1;fill-rule:nonzero;stroke:none"
       transform="matrix(1.3333333,0,0,-1.3333333,353.59013,537.32453)"
       clip-path="url(#clipPath34)" />
    <path
       id="path35"
       d="m 0,0 c 16.093,5.603 31.53,16.268 46.577,24.196 20.571,10.839 41.131,21.699 61.733,32.48 18.844,9.861 37.716,19.67 56.532,29.584 9.913,5.224 20.953,9.893 30.029,16.541 1.99,1.457 -0.013,4.981 -2.26,3.777 C 163.045,90.73 133.351,75.131 103.629,59.57 83.108,48.826 62.583,38.09 42.276,26.944 28.37,19.311 11.008,12.092 -0.641,1.07 -1.159,0.58 -0.691,-0.241 0,0"
       style="fill:#3d2b5e;fill-opacity:1;fill-rule:nonzero;stroke:none"
       transform="matrix(1.3333333,0,0,-1.3333333,356.08653,594.5984)"
       clip-path="url(#clipPath36)" />
    <path
       id="path37"
       d="m 0,0 c -2.17,1.346 -2.059,0.202 -1.345,2.053 0.193,0.498 -0.128,0.944 -0.613,1.054 -0.819,0.529 -0.897,1.233 -0.233,2.113 0.139,0.515 -0.182,1.129 -0.797,1.025 -0.855,-0.146 1.208,2.649 1.631,3.919 0.762,2.284 0.801,4.802 0.77,7.182 -0.099,7.482 -1.428,15.003 -3.521,22.162 -0.175,0.6 -1.091,0.933 -1.621,0.64 l -1.1,-0.608 C -7.513,39.162 -7.525,37.956 -6.595,37.886 -3.2,37.63 -2.076,20.451 -2.014,17.145 -1.921,12.233 -4.28,10.578 -5.11,6.25 -5.205,5.754 -5.258,5.807 -5.131,5.18 -5.054,4.798 -4.729,4.528 -4.329,4.576 -3.623,4.311 -3.734,3.809 -4.662,3.068 -4.908,2.587 -4.491,2.117 -4.051,2.016 -4.044,1.505 -4.037,0.993 -4.03,0.482 -4.424,0.003 -3.963,-0.891 -3.316,-0.729 -2.36,-0.749 -1.404,-0.768 -0.448,-0.788 0.011,-0.935 0.471,-0.292 0,0"
       style="fill:#3d2b5e;fill-opacity:1;fill-rule:nonzero;stroke:none"
       transform="matrix(1.3333333,0,0,-1.3333333,614.59053,454.12093)"
       clip-path="url(#clipPath38)" />
    <path
       id="path39"
       d="m 0,0 c -25.989,23.163 -65.33,33.372 -98.457,41.444 -17.57,4.282 -34.83,8.877 -53.041,8.649 -7.54,-0.094 -15.028,-0.83 -22.541,-1.396 -4.095,-0.308 -8.954,0.642 -12.503,-1.617 -1.306,-0.831 -1.132,-3.003 0.047,-3.829 0.148,-0.104 0.297,-0.209 0.446,-0.313 0.995,-0.697 2.375,-0.544 3.13,0.442 0.081,0.106 0.162,0.211 0.242,0.316 1.009,1.317 -0.145,3.84 -1.971,3.343 0.608,-0.298 1.217,-0.595 1.826,-0.893 -0.627,-1.119 -1.254,-2.238 -1.881,-3.357 12.21,1.371 25.293,2.208 37.556,2.065 17.089,-0.2 33.839,-4.834 50.368,-8.798 34.297,-8.226 65.497,-22.454 96.45,-38.945 0.796,-0.424 1.324,0.762 0.733,1.289 z"
       style="fill:#3d2b5e;fill-opacity:1;fill-rule:nonzero;stroke:none"
       transform="matrix(1.3333333,0,0,-1.3333333,609.1132,401.44347)"
       clip-path="url(#clipPath40)" />
    <path
       id="path41"
       d="m 0,0 c 45.029,29.776 91.213,59.058 138.59,84.953 1.82,0.995 0.541,3.995 -1.294,2.984 C 89.328,61.517 43.49,33.365 -0.309,0.391 -0.569,0.196 -0.264,-0.175 0,0"
       style="fill:#3d2b5e;fill-opacity:1;fill-rule:nonzero;stroke:none"
       transform="matrix(1.3333333,0,0,-1.3333333,132.94267,221.5252)"
       clip-path="url(#clipPath42)" />
    <path
       id="path43"
       d="m 0,0 c 30.693,17.107 62.713,34.909 95.012,48.857 2.142,0.925 -1.997,3.226 -4.146,2.292 C 58.369,37.023 29.596,19.393 -0.326,0.545 -0.63,0.354 -0.318,-0.177 0,0"
       style="fill:#3d2b5e;fill-opacity:1;fill-rule:nonzero;stroke:none"
       transform="matrix(1.3333333,0,0,-1.3333333,213.9648,175.9384)"
       clip-path="url(#clipPath44)" />
    <path
       id="path45"
       d="m 0,0 c 29.003,16.351 57.202,33.861 86.676,49.419 29.517,15.581 61.416,30.882 90.155,47.887 2.371,1.402 -2.454,4.391 -4.861,2.966 C 142.51,82.841 113.257,67.737 83.044,51.672 54.503,36.496 24.599,21.382 -0.375,0.626 -0.681,0.372 -0.377,-0.213 0,0"
       style="fill:#3d2b5e;fill-opacity:1;fill-rule:nonzero;stroke:none"
       transform="matrix(1.3333333,0,0,-1.3333333,119.73987,243.90373)"
       clip-path="url(#clipPath46)" />
    <path
       id="path47"
       d="m 0,0 c 6.857,3.992 14.428,7.48 20.654,12.441 0.516,0.41 0.015,1.305 -0.604,1.009 C 12.856,10.02 6.406,4.746 -0.193,0.323 -0.369,0.205 -0.187,-0.109 0,0"
       style="fill:#3d2b5e;fill-opacity:1;fill-rule:nonzero;stroke:none"
       transform="matrix(1.3333333,0,0,-1.3333333,166.51547,179.76333)"
       clip-path="url(#clipPath48)" />
    <path
       id="path49"
       d="m 0,0 c 19.215,8.743 40.602,21.395 58.68,32.256 2.087,1.254 -3.179,3.323 -5.251,2.077 C 35.479,23.543 16.788,12.668 -0.496,0.828 -0.953,0.515 -0.497,-0.226 0,0"
       style="fill:#3d2b5e;fill-opacity:1;fill-rule:nonzero;stroke:none"
       transform="matrix(1.3333333,0,0,-1.3333333,222.67493,145.5352)"
       clip-path="url(#clipPath50)" />
    <path
       id="path51"
       d="m 0,0 c 4.879,2.866 11.032,5.456 15.072,9.482 0.546,0.545 0.071,1.485 -0.713,1.192 C 8.973,8.664 4.124,4.181 -0.544,0.909 -1.03,0.568 -0.527,-0.309 0,0"
       style="fill:#3d2b5e;fill-opacity:1;fill-rule:nonzero;stroke:none"
       transform="matrix(1.3333333,0,0,-1.3333333,73.724,228.17053)"
       clip-path="url(#clipPath52)" />
    <path
       id="path53"
       d="m 0,0 c 21.525,13.036 43.83,25.563 64.571,39.796 1.002,0.688 -0.005,2.387 -1.1,1.838 C 40.983,30.374 19.684,15.53 -0.545,0.689 -1.012,0.346 -0.469,-0.284 0,0"
       style="fill:#3d2b5e;fill-opacity:1;fill-rule:nonzero;stroke:none"
       transform="matrix(1.3333333,0,0,-1.3333333,108.11827,206.14573)"
       clip-path="url(#clipPath54)" />
    <path
       id="path55"
       d="m 0,0 c 15.581,7.541 30.077,17.863 45.099,26.482 19.405,11.133 38.915,22.079 58.565,32.773 26.407,14.372 53.098,31.249 81.109,42.381 2.624,1.043 0.879,5.083 -1.748,4.029 C 154.543,94.241 127.453,76.901 100.726,62.011 81.202,51.134 61.699,40.205 42.447,28.851 28.056,20.364 11.73,12.442 -0.737,1.232 -1.318,0.71 -0.778,-0.376 0,0"
       style="fill:#3d2b5e;fill-opacity:1;fill-rule:nonzero;stroke:none"
       transform="matrix(1.3333333,0,0,-1.3333333,45.8276,237.828)"
       clip-path="url(#clipPath56)" />
    <path
       id="path57"
       d="m 0,0 c 35.295,13.253 69.741,30.01 102.784,48.122 0.722,0.396 0.25,1.566 -0.52,1.198 C 68.143,32.991 33.663,17.363 -0.397,0.915 -0.975,0.635 -0.602,-0.226 0,0"
       style="fill:#3d2b5e;fill-opacity:1;fill-rule:nonzero;stroke:none"
       transform="matrix(1.3333333,0,0,-1.3333333,365.92093,553.28693)"
       clip-path="url(#clipPath58)" />
    <path
       id="path59"
       d="m 0,0 c 40.393,16.417 79.704,34.582 117.064,57.161 1.331,0.805 -0.039,3.131 -1.414,2.363 C 77.795,38.383 39.565,17.755 -0.113,0.261 -0.281,0.187 -0.17,-0.069 0,0"
       style="fill:#3d2b5e;fill-opacity:1;fill-rule:nonzero;stroke:none"
       transform="matrix(1.3333333,0,0,-1.3333333,380.68307,560.59853)"
       clip-path="url(#clipPath60)" />
    <path
       id="path61"
       d="m 0,0 c 0.058,0.207 0.119,0.415 0.2,0.614 -0.029,0.349 0.01,0.68 0.04,1.014 -0.338,0.487 -0.954,0.773 -1.657,0.295 -7.993,-5.434 -17.534,-8.68 -25.856,-13.633 -0.419,-0.249 -0.169,-0.919 0.312,-0.718 8.976,3.74 17.5,9.393 26.765,12.311 C -0.113,-0.091 -0.068,-0.038 0,0"
       style="fill:#3d2b5e;fill-opacity:1;fill-rule:nonzero;stroke:none"
       transform="matrix(1.3333333,0,0,-1.3333333,613.81133,434.1976)"
       clip-path="url(#clipPath62)" />
    <path
       id="path63"
       d="M 0,0 C -0.026,-1.151 -0.043,0.141 -0.072,0.403 -0.12,0.846 -0.184,1.288 -0.246,1.729 -0.263,1.85 -0.251,1.966 -0.259,2.085 -0.406,2.054 -0.55,2.041 -0.704,1.958 c -8.891,-4.805 -17.69,-9.845 -26.117,-15.429 -0.278,-0.185 0.003,-0.658 0.303,-0.505 8.793,4.485 17.586,8.755 26.667,12.553 C 0.05,-0.954 -0.011,-0.476 0,0"
       style="fill:#3d2b5e;fill-opacity:1;fill-rule:nonzero;stroke:none"
       transform="matrix(1.3333333,0,0,-1.3333333,611.20093,415.71067)"
       clip-path="url(#clipPath64)" />
    <path
       id="path65"
       d="m 0,0 c 6.593,3.789 14.887,8.686 22.72,8.775 2.565,0.03 1.304,4.918 -1.309,3.054 C 17.9,9.323 13.004,7.553 9.124,5.619 5.919,4.022 2.841,2.221 -0.181,0.303 -0.35,0.196 -0.175,-0.101 0,0"
       style="fill:#3d2b5e;fill-opacity:1;fill-rule:nonzero;stroke:none"
       transform="matrix(1.3333333,0,0,-1.3333333,578.5976,424.87413)"
       clip-path="url(#clipPath66)" />
    <path
       id="path67"
       d="m 0,0 c -17.036,9.885 -34.7,17.818 -54.052,21.739 -21.228,4.301 -45.539,8.252 -67.164,4.997 -1.057,-0.159 -1.087,-1.788 0.011,-1.906 20.691,-2.213 41.212,-1.559 61.864,-5.242 C -37.944,15.771 -20.202,7.33 -0.244,-0.43 0.008,-0.528 0.253,-0.147 0,0"
       style="fill:#3d2b5e;fill-opacity:1;fill-rule:nonzero;stroke:none"
       transform="matrix(1.3333333,0,0,-1.3333333,338.08933,540.21747)"
       clip-path="url(#clipPath68)" />
    <path
       id="path69"
       d="m 0,0 c -22.099,2.027 -45.14,-1.14 -66.108,-8.35 -1.916,-0.659 -1.455,-3.204 0.041,-3.976 0.324,-0.167 0.721,-0.213 1.072,-0.28 1.19,-0.231 2.12,1.389 1.299,2.296 -2.485,-3.112 -1.271,-3.394 3.644,-0.847 3.271,0.921 6.548,1.816 9.833,2.687 4.943,1.232 9.935,2.298 14.946,3.213 11.675,2.132 23.479,3.123 35.279,4.293 C 0.549,-0.91 0.547,-0.05 0,0"
       style="fill:#3d2b5e;fill-opacity:1;fill-rule:nonzero;stroke:none"
       transform="matrix(1.3333333,0,0,-1.3333333,163.73227,505.35)"
       clip-path="url(#clipPath70)" />
    <path
       id="path71"
       d="m 0,0 c -3.489,1.811 -7.77,4.012 -11.775,4.17 -0.767,0.031 -1.12,-1.013 -0.355,-1.342 1.865,-0.804 3.954,-1.149 5.893,-1.782 1.962,-0.641 3.88,-1.356 5.769,-2.188 C 0.271,-1.467 0.693,-0.36 0,0"
       style="fill:#3d2b5e;fill-opacity:1;fill-rule:nonzero;stroke:none"
       transform="matrix(1.3333333,0,0,-1.3333333,340.92867,555.96787)"
       clip-path="url(#clipPath72)" />
    <path
       id="path73"
       d="m 0,0 c -23.284,8.813 -47.123,15.551 -72.219,16.329 -2.13,0.066 -2.622,-3.043 -0.433,-3.343 C -48.232,9.64 -23.853,6.598 -0.009,-0.022 0.005,-0.026 0.015,-0.006 0,0"
       style="fill:#3d2b5e;fill-opacity:1;fill-rule:nonzero;stroke:none"
       transform="matrix(1.3333333,0,0,-1.3333333,302.9224,547.83627)"
       clip-path="url(#clipPath74)" />
    <path
       id="path75"
       d="m 0,0 c -26.991,4.47 -54.616,5.758 -81.928,6.748 -2.868,0.104 -3.458,-4.352 -0.576,-4.449 27.447,-0.92 54.855,-3.202 82.297,-3.9 C 0.815,-1.627 1.044,-0.173 0,0"
       style="fill:#3d2b5e;fill-opacity:1;fill-rule:nonzero;stroke:none"
       transform="matrix(1.3333333,0,0,-1.3333333,184.2408,526.15627)"
       clip-path="url(#clipPath76)" />
    <path
       id="path77"
       d="M 0,0 C -9.397,2.739 -19.988,4.072 -29.771,3.656 -30.465,3.627 -30.425,2.542 -29.764,2.457 -19.976,1.191 -10.096,0.034 -0.289,-1.092 0.327,-1.163 0.64,-0.186 0,0"
       style="fill:#3d2b5e;fill-opacity:1;fill-rule:nonzero;stroke:none"
       transform="matrix(1.3333333,0,0,-1.3333333,337.91267,569.27547)"
       clip-path="url(#clipPath78)" />
    <path
       id="path79"
       d="m 0,0 c -24.198,5.604 -48.119,12.964 -72.755,16.527 -25.634,3.706 -48.779,9.3 -73.493,17.111 -2.247,0.71 -3.553,-2.381 -1.394,-3.405 C -126.13,20.031 -101.889,15.92 -78.45,13.135 -52.283,10.026 -25.974,4.406 -0.052,-0.4 0.207,-0.448 0.248,-0.058 0,0"
       style="fill:#3d2b5e;fill-opacity:1;fill-rule:nonzero;stroke:none"
       transform="matrix(1.3333333,0,0,-1.3333333,269.3984,561.6184)"
       clip-path="url(#clipPath80)" />
    <path
       id="path81"
       d="m 0,0 c 0,0 -1.08,-11.729 0.867,-25.371 1.946,-13.642 2.393,-16.46 2.393,-16.46 l 143.647,-16.086 c 0,0 8.453,5.979 7.369,14.368 -1.084,8.389 -8.266,22.876 -16.229,26.648 -7.963,3.772 -37.168,7.25 -47.665,13.027 C 79.885,1.903 77.643,8.777 77.643,8.777 c 0,0 -22.43,-10.736 -49.5,-11.076 C 1.072,-2.638 0,0 0,0"
       style="fill:#ffffff;fill-opacity:1;fill-rule:nonzero;stroke:none"
       transform="matrix(1.3333333,0,0,-1.3333333,671.6192,531.82947)"
       clip-path="url(#clipPath82)" />
    <path
       id="path83"
       d="m 0,0 c 0,0 -0.467,-3.139 2.494,-7.004 2.961,-3.866 18.997,-22.989 18.997,-22.989 l 107.894,55.827 c 0,0 5.249,7.82 -7.188,16.435 -12.437,8.616 -9.347,9.693 -22.286,6.397 C 86.972,45.37 70.241,36.921 61.531,36.229 52.821,35.537 45.39,38.562 45.39,38.562 Z"
       style="fill:#ffffff;fill-opacity:1;fill-rule:nonzero;stroke:none"
       transform="matrix(1.3333333,0,0,-1.3333333,990.974,673.38053)"
       clip-path="url(#clipPath84)" />
    <path
       id="path85"
       d="m 0,0 c 0,0 -32.7,19.962 -37.922,23.807 -5.222,3.846 -82.344,52.707 -51.981,88.557 6.587,7.778 35.838,6.626 78.739,-20.211 l 12.199,1.78 21.921,17.342 c 0,0 1.033,22.077 3.313,27.775 2.279,5.698 7.863,41.761 39.207,41.427 25.235,-0.268 27.116,-78.287 25.66,-104.6 -1.455,-26.313 29.26,-40.549 29.26,-40.549 L 94.485,1.342 c 0,0 -43.048,-7.322 -46.21,-5.838 C 45.112,-3.011 0,0 0,0"
       style="fill:#ffffff;fill-opacity:1;fill-rule:nonzero;stroke:none"
       transform="matrix(1.3333333,0,0,-1.3333333,235.1796,461.48347)"
       clip-path="url(#clipPath86)" />
    <path
       id="path87"
       d="m 0,0 c -0.175,0.002 -0.352,0.034 -0.526,0.1 -20.545,7.903 -75.277,46.748 -84.836,78.478 -2.643,8.774 -1.702,16.429 2.796,22.753 C -63.98,127.452 -0.928,87.497 1.745,85.785 2.448,85.336 2.652,84.402 2.202,83.7 1.754,82.996 0.82,82.79 0.117,83.243 -0.513,83.647 -63.179,123.38 -80.105,99.58 -84.036,94.056 -84.832,87.283 -82.472,79.449 -73.174,48.585 -19.578,10.663 0.559,2.919 1.337,2.619 1.725,1.746 1.426,0.967 1.193,0.362 0.613,-0.007 0,0"
       style="fill:#3d2b5e;fill-opacity:1;fill-rule:nonzero;stroke:none"
       transform="matrix(1.3333333,0,0,-1.3333333,219.05227,451.298)"
       clip-path="url(#clipPath88)" />
    <path
       id="path89"
       d="M 0,0 C -0.159,0.002 -0.31,0.026 -0.446,0.065 -2.013,0.522 -2.224,2.073 -3.218,11.337 -5.267,30.4 -10.063,75.043 -34.355,76.048 -41.327,76.321 -47.351,74.022 -52.262,69.169 -69.321,52.317 -68.298,10.363 -68.285,9.94 c 0.024,-0.832 -0.632,-1.528 -1.466,-1.553 -0.812,-0.011 -1.529,0.631 -1.553,1.464 -0.052,1.776 -1.075,43.684 16.917,61.463 5.532,5.468 12.321,8.089 20.157,7.75 C -7.339,77.953 -2.529,33.177 -0.217,11.659 0.162,8.133 0.552,4.504 0.896,3.034 1.005,2.984 1.11,2.92 1.208,2.841 1.859,2.32 1.964,1.371 1.444,0.72 1.014,0.182 0.47,-0.005 0,0"
       style="fill:#3d2b5e;fill-opacity:1;fill-rule:nonzero;stroke:none"
       transform="matrix(1.3333333,0,0,-1.3333333,361.896,324.05173)"
       clip-path="url(#clipPath90)" />
    <path
       id="path91"
       d="m 0,0 c 0,0 -125.835,17.583 -143.118,45.095 -12.537,19.959 -18.828,52.328 -18.828,52.328 l -43.133,-7.717 c 0,0 17.889,-21.147 14.114,-35.227 -3.776,-14.079 -2.087,-25.53 -2.087,-25.53 0,0 23.698,8.345 22.019,-10.949 -1.892,-21.751 -28.64,-28.187 -38.512,-18.13 -8.906,9.072 5.35,14.302 -6.807,21.325 -12.157,7.023 -44.608,20.253 -44.608,20.253 L -284.235,-4.5 c 0,0 36.763,-30.949 120.984,-60.169 106.974,-37.116 142.636,-28.204 142.636,-28.204 z"
       style="fill:#3d2b5e;fill-opacity:1;fill-rule:nonzero;stroke:none"
       transform="matrix(1.3333333,0,0,-1.3333333,578.32773,438.02027)"
       clip-path="url(#clipPath92)" />
    <path
       id="path93"
       d="m 0,0 c -3.923,12.732 1.737,25.79 -19.843,44.933 -28.584,25.356 -50.203,6.983 -54.7,5.002 -3.453,-1.522 10.134,-2.438 8.62,-2.215 -4.405,0.647 -11.894,0.908 -20.821,-6.332 -1.843,-1.495 9.39,1.332 10.777,0.223 1.387,-1.11 -12.82,-0.636 -19.145,-11.768 -0.471,-0.828 9.748,2.395 9.748,2.395 0,0 -11.782,-6.822 -7.1,-21.865 3.002,-9.648 30.431,-42.219 56.773,-40.099 C -9.348,-27.605 0,0 0,0"
       style="fill:#3d2b5e;fill-opacity:1;fill-rule:nonzero;stroke:none"
       transform="matrix(1.3333333,0,0,-1.3333333,327.68987,374.27587)"
       clip-path="url(#clipPath94)" />
    <path
       id="path95"
       d="m 0,0 c 0,0 -9.649,-10.33 -32.628,-19.486 0,0 17.92,5.597 14.758,3.639 -18.996,-11.758 -21.345,-20.367 -20.243,-25.814 1.102,-5.448 13.725,-23.975 33.168,-29.233 5.998,-1.622 14.652,-0.735 14.652,-0.735 l 20.897,10.588 -1.592,3.24 c 0,0 8.735,14.431 4.113,24.302 C 28.502,-23.627 10.942,-2.853 0,0"
       style="fill:#ffffff;fill-opacity:1;fill-rule:nonzero;stroke:none"
       transform="matrix(1.3333333,0,0,-1.3333333,281.47013,317.34973)"
       clip-path="url(#clipPath96)" />
    <path
       id="path97"
       d="m 0,0 c -1.472,3.889 6.973,3.04 10.298,-1.911 3.326,-4.952 1.039,-9.504 1.039,-9.504 z"
       style="fill:#ffffff;fill-opacity:1;fill-rule:nonzero;stroke:none"
       transform="matrix(1.3333333,0,0,-1.3333333,299.04853,324.42667)"
       clip-path="url(#clipPath98)" />
    <path
       id="path99"
       d="m 0,0 c -3.165,1.172 0.355,-10.844 8.929,-9.907 3.001,0.328 1.032,2.138 1.032,2.138 z"
       style="fill:#ffffff;fill-opacity:1;fill-rule:nonzero;stroke:none"
       transform="matrix(1.3333333,0,0,-1.3333333,239.67947,396.046)"
       clip-path="url(#clipPath100)" />
    <path
       id="path101"
       d="M 0,0 C -2.107,0.023 -3.917,0.643 -5.396,1.849 -8.425,4.32 -8.835,8.357 -8.85,8.527 l -0.051,0.551 0.317,0.455 c 0.058,0.083 5.818,8.447 5.533,17.755 -0.123,4.02 -4.555,14.326 -32.86,38.177 -0.887,0.746 -1.426,1.213 -1.531,1.324 -0.569,0.609 -0.537,1.565 0.072,2.134 0.599,0.561 1.539,0.539 2.112,-0.048 0.145,-0.137 0.598,-0.516 1.292,-1.102 C -11.696,49.007 -0.279,35.418 -0.033,27.38 0.244,18.336 -4.421,10.408 -5.763,8.323 -5.579,7.412 -5.016,5.426 -3.471,4.176 -2.313,3.238 -0.764,2.877 1.135,3.075 1.968,3.179 2.708,2.568 2.799,1.739 2.89,0.911 2.291,0.165 1.462,0.075 0.961,0.02 0.472,-0.005 0,0"
       style="fill:#3d2b5e;fill-opacity:1;fill-rule:nonzero;stroke:none"
       transform="matrix(1.3333333,0,0,-1.3333333,329.94947,405.97387)"
       clip-path="url(#clipPath102)" />
    <path
       id="path103"
       d="M 0,0 C -0.15,0.002 -0.302,0.026 -0.452,0.075 -1.245,0.333 -1.677,1.186 -1.418,1.978 0.06,6.507 -4.277,9.582 -5.746,10.471 -7.134,10.133 -10.622,9.402 -14.61,9.6 c -13.334,0.632 -38.354,21.698 -39.215,23.57 -0.347,0.758 -0.015,1.654 0.742,2.002 0.676,0.308 1.455,0.083 1.866,-0.504 1.964,-2.193 24.92,-21.492 36.748,-22.052 4.516,-0.209 8.474,0.909 8.514,0.92 l 0.567,0.163 0.529,-0.264 C -1.78,11.89 3.498,7.311 1.451,1.041 1.241,0.398 0.643,-0.007 0,0"
       style="fill:#3d2b5e;fill-opacity:1;fill-rule:nonzero;stroke:none"
       transform="matrix(1.3333333,0,0,-1.3333333,299.4884,428.7212)"
       clip-path="url(#clipPath104)" />
    <path
       id="path105"
       d="M 0,0 C -0.145,0.002 -0.287,0.006 -0.429,0.014 -1.262,0.059 -1.9,0.77 -1.856,1.603 c 0.046,0.832 0.79,1.467 1.589,1.426 2.722,-0.159 5.949,1.388 7.677,3.65 0.893,1.171 1.792,3.063 1.005,5.427 -0.263,0.791 0.166,1.645 0.957,1.909 0.791,0.262 1.645,-0.165 1.909,-0.956 C 12.219,10.237 11.697,7.321 9.809,4.848 7.538,1.871 3.643,-0.04 0,0"
       style="fill:#3d2b5e;fill-opacity:1;fill-rule:nonzero;stroke:none"
       transform="matrix(1.3333333,0,0,-1.3333333,293.45693,394.946)"
       clip-path="url(#clipPath106)" />
    <path
       id="path107"
       d="m 0,0 c -0.707,0.008 -1.301,0.082 -1.725,0.2 -0.803,0.223 -1.272,1.056 -1.048,1.86 0.223,0.801 1.058,1.268 1.859,1.048 1.087,-0.302 5.127,-0.057 7.77,2.293 1.991,1.769 2.736,4.359 2.217,7.698 -0.128,0.824 0.436,1.595 1.26,1.724 0.821,0.125 1.596,-0.436 1.723,-1.26 C 12.912,8.06 10.792,4.86 8.862,3.145 6.137,0.722 2.413,-0.027 0,0"
       style="fill:#3d2b5e;fill-opacity:1;fill-rule:nonzero;stroke:none"
       transform="matrix(1.3333333,0,0,-1.3333333,249.6096,386.56053)"
       clip-path="url(#clipPath108)" />
    <path
       id="path109"
       d="m 0,0 c -0.623,0.007 -1.202,0.402 -1.413,1.025 -0.267,0.789 0.155,1.646 0.945,1.914 2.807,0.952 4.333,3.384 4.722,4.486 -0.724,0.348 -1.915,0.784 -3.159,1.24 -1.519,0.556 -3.41,1.248 -5.482,2.132 -4.501,1.918 -11.654,7.898 -11.957,8.152 -0.639,0.535 -0.723,1.487 -0.187,2.126 0.534,0.641 1.486,0.725 2.127,0.187 0.071,-0.059 7.112,-5.945 11.2,-7.688 2.001,-0.852 3.851,-1.53 5.337,-2.075 C 4.307,10.703 5.743,10.177 6.597,9.542 6.96,9.272 7.536,8.626 7.33,7.326 6.998,5.225 4.598,1.469 0.501,0.08 0.335,0.024 0.166,-0.002 0,0"
       style="fill:#3d2b5e;fill-opacity:1;fill-rule:nonzero;stroke:none"
       transform="matrix(1.3333333,0,0,-1.3333333,289.84947,380.4228)"
       clip-path="url(#clipPath110)" />
    <path
       id="path111"
       d="M 0,0 C -3.737,1.146 8.723,15.127 13.817,15.684 13.817,15.684 2.095,-0.643 0,0"
       style="fill:#3d2b5e;fill-opacity:1;fill-rule:nonzero;stroke:none"
       transform="matrix(1.3333333,0,0,-1.3333333,269.7612,344.01413)"
       clip-path="url(#clipPath112)" />
    <path
       id="path113"
       d="m 0,0 c -2.677,1.406 -13.349,-11.821 -15.964,-20.343 0,0 19.496,18.488 15.964,20.343"
       style="fill:#3d2b5e;fill-opacity:1;fill-rule:nonzero;stroke:none"
       transform="matrix(1.3333333,0,0,-1.3333333,257.3348,355.40747)"
       clip-path="url(#clipPath114)" />
    <path
       id="path115"
       d="m 0,0 c -0.035,0 -0.071,0.002 -0.107,0.005 -0.831,0.068 -1.449,0.796 -1.382,1.627 l 3.53,43.469 c 0.068,0.829 0.785,1.444 1.627,1.382 0.831,-0.068 1.449,-0.796 1.382,-1.627 L 1.52,1.387 C 1.456,0.593 0.786,-0.009 0,0"
       style="fill:#3d2b5e;fill-opacity:1;fill-rule:nonzero;stroke:none"
       transform="matrix(1.3333333,0,0,-1.3333333,308.11467,320.4612)"
       clip-path="url(#clipPath116)" />
    <path
       id="path117"
       d="m 0,0 c -0.223,0.002 -0.449,0.054 -0.661,0.161 l -55.685,28.068 c -0.745,0.376 -1.045,1.283 -0.67,2.027 0.376,0.744 1.286,1.042 2.028,0.67 L 0.697,2.858 C 1.442,2.482 1.741,1.574 1.366,0.83 1.098,0.298 0.557,-0.006 0,0"
       style="fill:#3d2b5e;fill-opacity:1;fill-rule:nonzero;stroke:none"
       transform="matrix(1.3333333,0,0,-1.3333333,226.30773,388.95627)"
       clip-path="url(#clipPath118)" />
    <path
       id="path119"
       d="m 0,0 c -0.271,0.003 -0.509,0.022 -0.711,0.056 -0.758,0.126 -1.268,0.843 -1.142,1.601 0.127,0.759 0.851,1.265 1.601,1.143 1.021,-0.166 4.701,0.446 6.896,2.858 1.651,1.815 2.08,4.261 1.279,7.27 -0.198,0.742 0.243,1.503 0.985,1.701 0.741,0.199 1.504,-0.242 1.702,-0.985 C 11.932,8.686 10.302,5.547 8.702,3.786 6.112,0.939 2.107,-0.023 0,0"
       style="fill:#3d2b5e;fill-opacity:1;fill-rule:nonzero;stroke:none"
       transform="matrix(1.3333333,0,0,-1.3333333,281.5712,352.14627)"
       clip-path="url(#clipPath120)" />
    <path
       id="path121"
       d="m 0,0 c 0,0 104.346,-5.296 129.442,-17.232 25.095,-11.936 95.373,-83.118 95.373,-83.118 0,0 -16.351,-27.147 -55.851,-45.412 -1.647,-0.761 -60.863,70.649 -78.722,58.067 0,0 0.956,31.355 -21.147,36.829 -17.454,4.323 -31.832,6.346 -38.827,10.137 -6.995,3.791 -16.357,14.367 -16.357,14.367 z"
       style="fill:#e24051;fill-opacity:1;fill-rule:nonzero;stroke:none"
       transform="matrix(1.3333333,0,0,-1.3333333,756.59613,484.97667)"
       clip-path="url(#clipPath122)" />
    <path
       id="path123"
       d="m 0,0 c 0.137,77.461 59.363,230.222 109.149,228.579 49.785,-1.644 74.133,-192.252 72.73,-193.003 -12.828,-6.872 -45.57,-18.769 -85,-13.289 -2.328,0.324 -0.863,-1.098 -0.636,-3.438 l 2.165,-39.258 z"
       style="fill:#e24051;fill-opacity:1;fill-rule:nonzero;stroke:none"
       transform="matrix(1.3333333,0,0,-1.3333333,544.3856,562.51213)"
       clip-path="url(#clipPath124)" />
    <path
       id="path125"
       d="m 0,0 137.251,-16.134 c 2.88,-0.34 5.703,0.649 7.755,2.701 2.054,2.055 3.038,4.888 2.703,7.773 -0.318,2.752 -0.625,4.825 -0.912,6.163 -4.566,21.271 -20.925,24.239 -38.246,27.38 -3.414,0.619 -6.945,1.26 -10.394,2.044 C 80.622,33.912 73.869,43.438 71.846,47.154 50.007,36.463 21.37,36.307 5.65,37.238 13.628,33.341 23.337,26.225 25.281,14.218 25.414,13.395 24.854,12.62 24.033,12.487 23.205,12.354 22.432,12.912 22.3,13.736 19.796,29.213 1.987,35.931 -4.033,37.777 -3.078,22.671 -1.094,9.35 0,0 m 138.219,-19.217 c -0.436,0.005 -0.875,0.033 -1.317,0.084 L -3.652,-2.829 -3.797,-1.65 c -4.76,38.807 -8.576,156.273 -8.623,157.628 -0.029,0.834 0.628,1.532 1.46,1.559 0.816,0.022 1.533,-0.627 1.558,-1.462 0.028,-0.874 2.13,-65.656 5.158,-114.93 7.583,-0.887 48.616,-4.827 76.088,9.388 l 1.505,0.777 0.601,-1.583 c 0.046,-0.117 5.003,-12.34 24.875,-16.856 3.386,-0.769 6.882,-1.404 10.265,-2.017 17.536,-3.181 35.668,-6.47 40.658,-29.719 0.308,-1.431 0.63,-3.6 0.962,-6.446 0.441,-3.808 -0.86,-7.546 -3.569,-10.257 -2.394,-2.392 -5.587,-3.685 -8.922,-3.649"
       style="fill:#3d2b5e;fill-opacity:1;fill-rule:nonzero;stroke:none"
       transform="matrix(1.3333333,0,0,-1.3333333,678.42547,585.71547)"
       clip-path="url(#clipPath126)" />
    <path
       id="path127"
       d="M 0,0 C -0.383,0.004 -0.757,0.101 -1.092,0.187 -1.419,0.272 -1.843,0.382 -2.385,0.461 L -151.78,19.153 c -0.829,0.105 -1.415,0.858 -1.311,1.686 0.062,0.498 0.36,0.907 0.766,1.133 l -0.567,0.073 c -0.827,0.107 -1.411,0.863 -1.303,1.69 0.107,0.827 0.88,1.403 1.689,1.305 L 1.492,5.223 1.748,3.335 C 1.898,2.22 2.042,1.167 1.235,0.45 0.844,0.101 0.416,-0.005 0,0"
       style="fill:#3d2b5e;fill-opacity:1;fill-rule:nonzero;stroke:none"
       transform="matrix(1.3333333,0,0,-1.3333333,876.63013,595.05187)"
       clip-path="url(#clipPath128)" />
    <path
       id="path129"
       d="M 0,0 C -0.826,0.009 -1.493,0.681 -1.492,1.509 -1.5,10.425 3.599,21.786 18,24.46 c 0.819,0.153 1.604,-0.389 1.759,-1.208 0.151,-0.82 -0.388,-1.608 -1.21,-1.76 C 5.975,19.157 1.521,9.269 1.525,1.51 1.526,0.677 0.851,0.001 0.018,0 0.012,0 0.006,0 0,0"
       style="fill:#3d2b5e;fill-opacity:1;fill-rule:nonzero;stroke:none"
       transform="matrix(1.3333333,0,0,-1.3333333,829.33573,585.36707)"
       clip-path="url(#clipPath130)" />
    <path
       id="path131"
       d="m 0,0 c -0.402,0.004 -0.804,0.169 -1.097,0.49 -0.563,0.615 -0.52,1.569 0.095,2.132 l 10.775,9.87 c 0.613,0.56 1.57,0.525 2.133,-0.093 0.563,-0.615 0.52,-1.57 -0.095,-2.133 L 1.035,0.396 C 0.741,0.127 0.371,-0.004 0,0"
       style="fill:#3d2b5e;fill-opacity:1;fill-rule:nonzero;stroke:none"
       transform="matrix(1.3333333,0,0,-1.3333333,765.10187,545.948)"
       clip-path="url(#clipPath132)" />
    <path
       id="path133"
       d="m 0,0 c -0.389,0.004 -0.775,0.158 -1.067,0.46 -0.582,0.598 -0.565,1.554 0.034,2.134 L 9.544,12.836 c 0.596,0.581 1.553,0.563 2.133,-0.035 0.582,-0.599 0.565,-1.555 -0.034,-2.134 L 1.066,0.425 C 0.77,0.137 0.383,-0.004 0,0"
       style="fill:#3d2b5e;fill-opacity:1;fill-rule:nonzero;stroke:none"
       transform="matrix(1.3333333,0,0,-1.3333333,776.55947,554.0628)"
       clip-path="url(#clipPath134)" />
    <path
       id="path135"
       d="M 0,0 C -0.385,0.004 -0.769,0.155 -1.059,0.45 -1.645,1.045 -1.636,2 -1.042,2.585 l 9.205,9.059 c 0.597,0.586 1.554,0.576 2.134,-0.016 0.586,-0.595 0.577,-1.55 -0.018,-2.135 L 1.075,0.434 C 0.776,0.14 0.387,-0.004 0,0"
       style="fill:#3d2b5e;fill-opacity:1;fill-rule:nonzero;stroke:none"
       transform="matrix(1.3333333,0,0,-1.3333333,789.56333,557.99973)"
       clip-path="url(#clipPath136)" />
    <path
       id="path137"
       d="m 0,0 c -0.383,0.004 -0.765,0.154 -1.057,0.448 -0.586,0.593 -0.581,1.549 0.011,2.135 l 9.5,9.391 c 0.597,0.585 1.548,0.581 2.136,-0.013 0.585,-0.592 0.581,-1.548 -0.012,-2.134 L 1.079,0.436 C 0.778,0.141 0.389,-0.004 0,0"
       style="fill:#3d2b5e;fill-opacity:1;fill-rule:nonzero;stroke:none"
       transform="matrix(1.3333333,0,0,-1.3333333,804.006,560.09347)"
       clip-path="url(#clipPath138)" />
    <path
       id="path139"
       d="m 0,0 c -5.517,0.061 -12.795,1.799 -22.635,6.375 -12.546,5.833 -21.94,16.568 -22.335,17.022 -0.546,0.629 -0.478,1.583 0.151,2.129 0.627,0.546 1.579,0.481 2.13,-0.15 0.093,-0.107 9.382,-10.709 21.327,-16.264 25.395,-11.81 31.716,-3.83 36.335,1.992 l 0.449,0.562 c 0.517,0.651 1.467,0.759 2.122,0.236 0.65,-0.52 0.756,-1.471 0.235,-2.121 L 17.338,9.228 C 14.158,5.218 9.932,-0.109 0,0"
       style="fill:#3d2b5e;fill-opacity:1;fill-rule:nonzero;stroke:none"
       transform="matrix(1.3333333,0,0,-1.3333333,805.91307,562.37467)"
       clip-path="url(#clipPath140)" />
    <path
       id="path141"
       d="m 0,0 c 1.346,-2.104 5.73,-8.134 19.962,-24.633 l 102.824,52.949 c 2.142,1.103 3.636,3.092 4.103,5.457 0.466,2.37 -0.165,4.784 -1.733,6.621 -1.492,1.746 -2.664,3.034 -3.486,3.831 -13.006,12.57 -25.675,7.039 -39.086,1.184 C 79.94,44.256 77.207,43.062 74.461,42.005 60.07,36.465 49.973,38.692 46.949,39.612 36.127,25.304 15.995,10.904 5.529,3.936 c 7.395,1.291 18.451,1.44 25.902,-6.534 0.472,-0.506 0.445,-1.3 -0.061,-1.774 -0.507,-0.471 -1.298,-0.447 -1.774,0.06 C 20.514,5.412 4.685,1.459 0,0 m 19.353,-27.769 -0.645,0.747 C 4.141,-10.163 -3.176,-0.794 -3.043,0.825 c 0.035,0.42 0.273,0.774 0.609,0.974 0.785,0.481 33.836,20.855 47.909,40.038 l 0.575,0.781 0.904,-0.359 c 0.102,-0.042 10.609,-4.071 26.606,2.089 2.692,1.036 5.401,2.218 8.021,3.362 13.579,5.928 27.62,12.055 41.835,-1.681 0.878,-0.853 2.105,-2.199 3.647,-4.006 2.071,-2.424 2.905,-5.607 2.288,-8.734 -0.614,-3.123 -2.588,-5.748 -5.417,-7.204 z"
       style="fill:#3d2b5e;fill-opacity:1;fill-rule:nonzero;stroke:none"
       transform="matrix(1.3333333,0,0,-1.3333333,993.5256,677.6816)"
       clip-path="url(#clipPath142)" />
    <path
       id="path143"
       d="m 0,0 c -0.455,0.005 -0.893,0.26 -1.109,0.697 -0.185,0.371 -0.17,0.79 0.006,1.132 L -1.528,1.616 c -0.62,-0.303 -1.374,-0.058 -1.685,0.562 -0.308,0.621 -0.056,1.374 0.562,1.684 l 115.493,57.658 1.051,-1.189 c 0.261,-0.294 0.486,-0.515 0.662,-0.687 0.42,-0.41 0.941,-0.92 0.81,-1.712 -0.139,-0.826 -0.782,-1.132 -1.758,-1.597 L 0.573,0.132 C 0.388,0.04 0.193,-0.002 0,0"
       style="fill:#3d2b5e;fill-opacity:1;fill-rule:nonzero;stroke:none"
       transform="matrix(1.3333333,0,0,-1.3333333,1009.7923,700.77293)"
       clip-path="url(#clipPath144)" />
    <path
       id="path145"
       d="M 0,0 C -0.4,0.004 -0.791,0.199 -1.029,0.556 -5.165,6.707 -6.906,16.913 1.795,25.428 2.292,25.912 3.083,25.904 3.57,25.408 4.054,24.913 4.045,24.119 3.55,23.633 -4.048,16.197 -2.545,7.308 1.053,1.955 1.44,1.38 1.288,0.601 0.712,0.214 0.493,0.066 0.244,-0.003 0,0"
       style="fill:#3d2b5e;fill-opacity:1;fill-rule:nonzero;stroke:none"
       transform="matrix(1.3333333,0,0,-1.3333333,1124.0289,639.97307)"
       clip-path="url(#clipPath146)" />
    <path
       id="path147"
       d="m 0,0 c -0.094,0.001 -0.188,0.012 -0.284,0.036 -0.673,0.163 -1.088,0.842 -0.925,1.516 l 2.867,11.805 c 0.165,0.673 0.844,1.085 1.517,0.923 0.672,-0.163 1.087,-0.842 0.924,-1.515 L 1.232,0.959 C 1.091,0.381 0.57,-0.006 0,0"
       style="fill:#3d2b5e;fill-opacity:1;fill-rule:nonzero;stroke:none"
       transform="matrix(1.3333333,0,0,-1.3333333,1060.6377,642.40733)"
       clip-path="url(#clipPath148)" />
    <path
       id="path149"
       d="M 0,0 C -0.084,-0.008 -0.166,-0.008 -0.251,0.001 -0.942,0.07 -1.444,0.685 -1.375,1.375 l 1.225,12.179 c 0.069,0.691 0.691,1.195 1.374,1.122 0.69,-0.069 1.192,-0.685 1.123,-1.374 L 1.122,1.123 C 1.061,0.519 0.581,0.058 0,0"
       style="fill:#3d2b5e;fill-opacity:1;fill-rule:nonzero;stroke:none"
       transform="matrix(1.3333333,0,0,-1.3333333,1073.678,642.6484)"
       clip-path="url(#clipPath150)" />
    <path
       id="path151"
       d="M 0,0 C -0.079,-0.012 -0.159,-0.015 -0.243,-0.012 -0.935,0.019 -1.47,0.604 -1.44,1.297 l 0.473,10.727 c 0.03,0.693 0.61,1.224 1.31,1.198 C 1.036,13.191 1.57,12.606 1.54,11.913 L 1.067,1.186 C 1.04,0.576 0.582,0.086 0,0"
       style="fill:#3d2b5e;fill-opacity:1;fill-rule:nonzero;stroke:none"
       transform="matrix(1.3333333,0,0,-1.3333333,1086.5089,638.19227)"
       clip-path="url(#clipPath152)" />
    <path
       id="path153"
       d="m 0,0 c -0.076,-0.018 0.411,-0.796 0.329,-0.799 -0.692,-0.026 -1.276,0.514 -1.301,1.206 L -1.4,11.503 c -0.028,0.692 0.502,1.274 1.205,1.303 0.692,0.026 1.276,-0.514 1.301,-1.206 L 1.534,0.504 C 1.511,1.092 0.575,0.133 0,0"
       style="fill:#3d2b5e;fill-opacity:1;fill-rule:nonzero;stroke:none"
       transform="matrix(1.3333333,0,0,-1.3333333,1098.1037,633.3572)"
       clip-path="url(#clipPath154)" />
    <path
       id="path155"
       d="m 0,0 c -8.122,0.089 -14.752,1.859 -15.116,1.958 -0.668,0.182 -1.062,0.871 -0.883,1.54 0.182,0.669 0.865,1.066 1.541,0.882 0.113,-0.03 11.439,-3.043 22.256,-1.346 22.997,3.61 23.67,12.047 24.162,18.207 l 0.048,0.596 c 0.058,0.691 0.667,1.236 1.355,1.145 0.692,-0.058 1.204,-0.664 1.147,-1.355 L 34.463,21.041 C 33.935,14.443 33.138,4.471 8.189,0.553 5.411,0.118 2.627,-0.029 0,0"
       style="fill:#3d2b5e;fill-opacity:1;fill-rule:nonzero;stroke:none"
       transform="matrix(1.3333333,0,0,-1.3333333,1062.4536,643.5296)"
       clip-path="url(#clipPath156)" />
    <path
       id="path157"
       d="m 0,0 c -0.029,0 -0.055,0.002 -0.084,0.003 -1.248,0.059 -2.212,1.113 -2.155,2.36 0.062,1.372 2.018,34.179 46.21,83.962 0.83,0.935 2.262,1.02 3.196,0.19 0.935,-0.831 1.02,-2.261 0.19,-3.197 C 4.379,34.904 2.3,2.476 2.285,2.155 2.224,0.936 1.209,-0.013 0,0"
       style="fill:#74b39d;fill-opacity:1;fill-rule:nonzero;stroke:none"
       transform="matrix(1.3333333,0,0,-1.3333333,516.56827,552.19227)"
       clip-path="url(#clipPath158)" />
    <path
       id="path159"
       d="m 0,0 c -0.184,0.002 -0.371,0.027 -0.557,0.076 -1.207,0.321 -1.927,1.554 -1.609,2.762 0.35,1.329 9.18,32.985 62.872,72.333 1.013,0.739 2.429,0.517 3.166,-0.488 0.739,-1.009 7.043,-13.172 6.035,-13.911 C 17.688,22.505 2.296,1.992 2.213,1.68 1.939,0.66 1.01,-0.011 0,0"
       style="fill:#e24051;fill-opacity:1;fill-rule:nonzero;stroke:none"
       transform="matrix(1.3333333,0,0,-1.3333333,487.61333,542.2956)"
       clip-path="url(#clipPath160)" />
    <path
       id="path161"
       d="m 0,0 c 18.992,24.349 74.093,-114.948 73.77,-114.297 0,0 -102.487,9.841 -113.663,16.29 C -72.193,-79.37 0.12,-0.898 0,0"
       style="fill:#e24051;fill-opacity:1;fill-rule:nonzero;stroke:none"
       transform="matrix(1.3333333,0,0,-1.3333333,575.19627,437.09173)"
       clip-path="url(#clipPath162)" />
  </g>
</svg>
