<svg xmlns="http://www.w3.org/2000/svg" width="1200" height="800.1"><defs><clipPath id="a" clipPathUnits="userSpaceOnUse"><path d="M-780.2 304.8h900v-600h-900Z"/></clipPath><clipPath id="b" clipPathUnits="userSpaceOnUse"><path d="M-649.8 133.5h900v-600h-900Z"/></clipPath><clipPath id="c" clipPathUnits="userSpaceOnUse"><path d="M-652.6 138.1h900v-600h-900Z"/></clipPath><clipPath id="d" clipPathUnits="userSpaceOnUse"><path d="M-654.5 142.4h900v-600h-900Z"/></clipPath><clipPath id="e" clipPathUnits="userSpaceOnUse"><path d="M-619 144h900v-600h-900Z"/></clipPath><clipPath id="f" clipPathUnits="userSpaceOnUse"><path d="M-619.5 150.5h900v-600h-900Z"/></clipPath><clipPath id="g" clipPathUnits="userSpaceOnUse"><path d="M-621.8 156.3h900v-600h-900Z"/></clipPath><clipPath id="h" clipPathUnits="userSpaceOnUse"><path d="M-648.9 124h900v-600.1h-900Z"/></clipPath><clipPath id="i" clipPathUnits="userSpaceOnUse"><path d="M-611.7 138.8h900v-600.1h-900Z"/></clipPath><clipPath id="j" clipPathUnits="userSpaceOnUse"><path d="M-631.5 127h900v-600h-900Z"/></clipPath><clipPath id="k" clipPathUnits="userSpaceOnUse"><path d="M-644.5 141h900v-600.1h-900Z"/></clipPath><clipPath id="l" clipPathUnits="userSpaceOnUse"><path d="M-628.9 146.1h900v-600h-900Z"/></clipPath><clipPath id="m" clipPathUnits="userSpaceOnUse"><path d="M-55.4 166.3h900v-600h-900Z"/></clipPath><clipPath id="n" clipPathUnits="userSpaceOnUse"><path d="M-318.8 42.3h900v-600h-900Z"/></clipPath><clipPath id="o" clipPathUnits="userSpaceOnUse"><path d="M-133.3 180.3h900v-600h-900Z"/></clipPath><clipPath id="p" clipPathUnits="userSpaceOnUse"><path d="M-60.4 167.6h900v-600h-900Z"/></clipPath><clipPath id="q" clipPathUnits="userSpaceOnUse"><path d="M-62.6 167.7h900v-600h-900Z"/></clipPath><clipPath id="r" clipPathUnits="userSpaceOnUse"><path d="M-107 305.7h900v-600h-900Z"/></clipPath><clipPath id="s" clipPathUnits="userSpaceOnUse"><path d="M-90.6 367.6h900v-600h-900Z"/></clipPath><clipPath id="t" clipPathUnits="userSpaceOnUse"><path d="M-88.2 217.4h900v-600h-900Z"/></clipPath><clipPath id="u" clipPathUnits="userSpaceOnUse"><path d="M-80.6 321.3h900v-600h-900Z"/></clipPath><clipPath id="v" clipPathUnits="userSpaceOnUse"><path d="M-75.8 274.2h900v-600h-900Z"/></clipPath><clipPath id="w" clipPathUnits="userSpaceOnUse"><path d="M-314.3 54.7h900v-600h-900Z"/></clipPath><clipPath id="x" clipPathUnits="userSpaceOnUse"><path d="M-376.8 74h900v-600h-900Z"/></clipPath><clipPath id="y" clipPathUnits="userSpaceOnUse"><path d="M-55 449h900v-600.1H-55Z"/></clipPath><clipPath id="z" clipPathUnits="userSpaceOnUse"><path d="M-338.9 490h900v-600h-900Z"/></clipPath><clipPath id="A" clipPathUnits="userSpaceOnUse"><path d="M-334.4 543.8h900v-600h-900Z"/></clipPath><clipPath id="B" clipPathUnits="userSpaceOnUse"><path d="M-334 542.4h900v-600h-900Z"/></clipPath><clipPath id="C" clipPathUnits="userSpaceOnUse"><path d="M-337.5 489.9h900v-600h-900Z"/></clipPath><clipPath id="D" clipPathUnits="userSpaceOnUse"><path d="M-334.8 546.2h900v-600h-900Z"/></clipPath><clipPath id="E" clipPathUnits="userSpaceOnUse"><path d="M-600.8 431.7h900v-600h-900Z"/></clipPath><clipPath id="F" clipPathUnits="userSpaceOnUse"><path d="M-600.1 379.6h900v-600h-900Z"/></clipPath><clipPath id="G" clipPathUnits="userSpaceOnUse"><path d="M-149.5 160.6h900v-600h-900Z"/></clipPath><clipPath id="H" clipPathUnits="userSpaceOnUse"><path d="M-233 123.1h900v-600h-900Z"/></clipPath><clipPath id="I" clipPathUnits="userSpaceOnUse"><path d="M-134.6 181.3h900v-600h-900Z"/></clipPath><clipPath id="J" clipPathUnits="userSpaceOnUse"><path d="M-186.2 122.6h900v-600h-900Z"/></clipPath><clipPath id="K" clipPathUnits="userSpaceOnUse"><path d="M-244.3 94.1h900v-600h-900Z"/></clipPath><clipPath id="L" clipPathUnits="userSpaceOnUse"><path d="M-90.9 161.8h900v-600h-900Z"/></clipPath><clipPath id="M" clipPathUnits="userSpaceOnUse"><path d="M-126.6 143.3h900v-600h-900Z"/></clipPath><clipPath id="N" clipPathUnits="userSpaceOnUse"><path d="M-62.7 168.7h900v-600h-900Z"/></clipPath><clipPath id="O" clipPathUnits="userSpaceOnUse"><path d="M-348.2 506.6h900v-600h-900Z"/></clipPath><clipPath id="P" clipPathUnits="userSpaceOnUse"><path d="M-362 515.1h900v-600h-900Z"/></clipPath><clipPath id="Q" clipPathUnits="userSpaceOnUse"><path d="M-601.8 412.1h900v-600h-900Z"/></clipPath><clipPath id="R" clipPathUnits="userSpaceOnUse"><path d="M-600.9 393.8h900v-600.1h-900Z"/></clipPath><clipPath id="S" clipPathUnits="userSpaceOnUse"><path d="M-568.1 399.8h900v-600h-900Z"/></clipPath><clipPath id="T" clipPathUnits="userSpaceOnUse"><path d="M-322 491.3h900v-600h-900Z"/></clipPath><clipPath id="U" clipPathUnits="userSpaceOnUse"><path d="M-154.3 441.5h900v-600h-900Z"/></clipPath><clipPath id="V" clipPathUnits="userSpaceOnUse"><path d="M-323.4 507h900V-93h-900Z"/></clipPath><clipPath id="W" clipPathUnits="userSpaceOnUse"><path d="M-286.9 495.6h900v-600h-900Z"/></clipPath><clipPath id="X" clipPathUnits="userSpaceOnUse"><path d="M-172.5 463.8h900v-600.1h-900Z"/></clipPath><clipPath id="Y" clipPathUnits="userSpaceOnUse"><path d="M-319.3 519.8h900v-600h-900Z"/></clipPath><clipPath id="Z" clipPathUnits="userSpaceOnUse"><path d="M-252.8 506.1h900v-600h-900Z"/></clipPath><clipPath id="aa" clipPathUnits="userSpaceOnUse"><path d="M-766.6 477.6h900v-600h-900Z"/></clipPath><clipPath id="ab" clipPathUnits="userSpaceOnUse"><path d="M-725.5 482.6h900v-600h-900Z"/></clipPath><clipPath id="ac" clipPathUnits="userSpaceOnUse"><path d="M-751.7 233.4h900v-600h-900Z"/></clipPath><clipPath id="ad" clipPathUnits="userSpaceOnUse"><path d="M-711.8 226h900v-600.1h-900Z"/></clipPath><clipPath id="ae" clipPathUnits="userSpaceOnUse"><path d="M-450.7 249.9h900v-600h-900Z"/></clipPath><clipPath id="af" clipPathUnits="userSpaceOnUse"><path d="M-450.7 249.9h900v-600h-900Z"/></clipPath><clipPath id="ag" clipPathUnits="userSpaceOnUse"><path d="M-385.6 244.8h900v-600h-900Z"/></clipPath><clipPath id="ah" clipPathUnits="userSpaceOnUse"><path d="M-289.9 438.2h900v-600h-900Z"/></clipPath><clipPath id="ai" clipPathUnits="userSpaceOnUse"><path d="M-270.3 364.8h900v-600h-900Z"/></clipPath><clipPath id="aj" clipPathUnits="userSpaceOnUse"><path d="M-399 275h900v-600h-900Z"/></clipPath><clipPath id="ak" clipPathUnits="userSpaceOnUse"><path d="M-598.2 400.7h900v-600h-900Z"/></clipPath><clipPath id="al" clipPathUnits="userSpaceOnUse"><path d="M-373.4 207h900v-600.1h-900Z"/></clipPath><clipPath id="am" clipPathUnits="userSpaceOnUse"><path d="M-332.8 421.5h900v-600h-900Z"/></clipPath><clipPath id="an" clipPathUnits="userSpaceOnUse"><path d="M-350.7 212.7h900v-600.1h-900Z"/></clipPath><clipPath id="ao" clipPathUnits="userSpaceOnUse"><path d="M-416.4 298.6h900v-600h-900Z"/></clipPath><clipPath id="ap" clipPathUnits="userSpaceOnUse"><path d="M-347.2 312h900v-600h-900Z"/></clipPath><clipPath id="aq" clipPathUnits="userSpaceOnUse"><path d="M-387.7 243.4h900v-600.1h-900Z"/></clipPath><clipPath id="ar" clipPathUnits="userSpaceOnUse"><path d="M-381 314h900v-600.1h-900Z"/></clipPath><clipPath id="as" clipPathUnits="userSpaceOnUse"><path d="M-420.7 264h900v-600.1h-900Z"/></clipPath><clipPath id="at" clipPathUnits="userSpaceOnUse"><path d="M-397.8 344h900v-600h-900Z"/></clipPath><clipPath id="au" clipPathUnits="userSpaceOnUse"><path d="M-326.8 402.4h900v-600h-900Z"/></clipPath><clipPath id="av" clipPathUnits="userSpaceOnUse"><path d="M-347.6 408h900v-600h-900Z"/></clipPath><clipPath id="aw" clipPathUnits="userSpaceOnUse"><path d="M-589 415.6h900v-600h-900Z"/></clipPath><clipPath id="ax" clipPathUnits="userSpaceOnUse"><path d="M-564.3 415.9h900v-600h-900Z"/></clipPath></defs><path fill="#f8da2c" d="M0 0c-14.4 5.4 41 78.5 10 122.3-30.8 43.8-84.7 40.6-109.8 12.3-25.1-28.3-39-61.3-49.4-55.2-10.4 6.1 25.6 61.9 7.7 59.6-18-2.2-50.1-76.3-58-73-7.9 3.2-1.3 31.9 18.1 60.4 3 4.4-13.2 55.3-13.5 61.5-.3 6.2-1.2 21.3 1.9 26.9 3.1 5.5 18.3-14.8 18.3-14.8s21.9 10 30 10.3c0 0 8.6 23.7 13.6 23 5-.8 8.8-23.4 8.8-23.4s81.2 25.2 141.6-21.1C76 145.4 94.1 71 51.4.6c-2.5-4-8.8-2.1-8.6 2.6l1.4 41c0 1.5-2 2-2.6.6C34.8 29.4 17-6.2 0 0" clip-path="url(#a)" transform="matrix(1.333 0 0 -1.333 1040.3 406.4)"/><path fill="#3d2b5e" d="M0 0 2-3C9 1.3 60.7 34 65.3 37.1L0 0" clip-path="url(#b)" transform="matrix(1.333 0 0 -1.333 866.4 178)"/><path fill="#3d2b5e" d="m0 0 1.4-3.1c7.6 4.2 39.4 22 67.4 35C68.8 32 51.5 27.4 0 0" clip-path="url(#c)" transform="matrix(1.333 0 0 -1.333 870.1 184.2)"/><path fill="#3d2b5e" d="m0 0 1-3.3 68 30.2Z" clip-path="url(#d)" transform="matrix(1.333 0 0 -1.333 872.7 190)"/><path fill="#3d2b5e" d="m0 0-61.6-10.7L0-3.5V0" clip-path="url(#e)" transform="matrix(1.333 0 0 -1.333 825.4 192.1)"/><path fill="#3d2b5e" d="M0 0c-24.5-5-61-15.9-61-15.9 1.3 0 42.4 8.5 62 12.6A20 20 0 0 0 0 0" clip-path="url(#f)" transform="matrix(1.333 0 0 -1.333 826 200.7)"/><path fill="#3d2b5e" d="M0 0c-11.6-3.7-57.4-18.3-60.8-20.8C-60.8-20.8-20-10 2-3v.1L0 0" clip-path="url(#g)" transform="matrix(1.333 0 0 -1.333 829 208.4)"/><path fill="#3d2b5e" d="M0 0c-5.3 0-8.3 4.6-11.3 11.9 4-9.7 9.9-9.4 12.6-8.3 3 1.2 4.6 10.2 5 12.8l.1-3.1C6.8 7.6 7.4 1 2 .2L0 0" clip-path="url(#h)" transform="matrix(1.333 0 0 -1.333 865.1 165.2)"/><path fill="#3d2b5e" d="M0 0c-5.5 0-9 7-10.3 11.4 0 0 6.4-9.2 11.3-7.8.7.2 1.2.6 1.5 1.3 1.2 2.5 2.8 9.2 1.5 12 .4-1 3.9-8.7 1.7-13.5C5 1.8 3.7.7 1.9.3A7 7 0 0 0 0 0" clip-path="url(#i)" transform="matrix(1.333 0 0 -1.333 815.6 185)"/><path fill="#3d2b5e" d="m0 0-1.6.3-6.6 1.9a1.5 1.5 0 0 0-.2 2.7L2.2 10c1.2.6 2.6-.7 2-2Z" clip-path="url(#j)" transform="matrix(1.333 0 0 -1.333 842 169.3)"/><path fill="#3d2b5e" d="M0 0c-11.1-1.6-15.2 13.7-15.7 15.4l3.4.9A27.1 27.1 0 0 1 0 0" clip-path="url(#k)" transform="matrix(1.333 0 0 -1.333 859.3 188)"/><path fill="#3d2b5e" d="M0 0c2.3 1.2 3.7 10.6 2.4 14H6C8.7 3 0 0 0 0" clip-path="url(#l)" transform="matrix(1.333 0 0 -1.333 838.5 194.9)"/><path fill="#fff" d="M0 0s-11.7-279.7-10.5-281.5c1.3-1.8 291.9-110.4 291.9-110.4l269 124.4s-8.8 45-13 52c-4.2 7-115.5 97.8-229.2 84.4 0 0 48.2 140.7 9.6 216.6l-79.3 28.3z" clip-path="url(#m)" transform="matrix(1.333 0 0 -1.333 73.9 221.7)"/><path fill="#55c3be" d="M0 0s-53.6-11.7-81.6-28.7c-28.1-17-186-92.3-186-92.3l-5.1-270.1s-4.3-20.7 14-26c18.3-5.4 278.4-98.7 278.4-98.7l283.5 123.4-25 9.6 2.3-3.7L17.2-502.1l-12.8 4.5-261 90.2-6.7 10.1 9 269.1 243.6 116 20.4-3.3S6.7 1 3.4.5z" clip-path="url(#n)" transform="matrix(1.333 0 0 -1.333 425 56.4)"/><path fill="#3d2b5e" d="M0 0c-.4-24.3 1.7-47.8-.3-72.2-2-24.5-6.2-48.8-12.7-72.5a318.8 318.8 0 0 0-26.8-67.1c-11.4-20.9-28-37-40.5-56.8-1.1-1.8 1.3-3.8 3-2.7 17.8 11.3 30.8 33.8 41 51.8 12.7 22.2 22.1 46.2 29 70.7C5.8-102.9 14.4-46.8 2.4 0 2 1.2 0 .4 0-.7Z" clip-path="url(#o)" transform="matrix(1.333 0 0 -1.333 177.7 240.4)"/><path fill="#3d2b5e" d="M0 0c5.3-42.2.4-87.7-1.2-130-1-29-2.3-57.9-4.1-86.8-1.4-20.7-5.3-42-5.4-62.6 0-3.3 4.6-3.3 5.6-.4 5.8 18 4.8 40.8 6 59.7A2921.5 2921.5 0 0 1 7-44.3C7-30.3 8.3-13 3.5.7 3 2.5-.3 2 0 0" clip-path="url(#p)" transform="matrix(1.333 0 0 -1.333 80.5 223.5)"/><path fill="#3d2b5e" d="M0 0c2-2 4.2-4 6.4-5.9.2-.2.6-.3 1 0 4.4 3.2 15.5-3.4 17.4-5.9.4-.5 1.4-.6 1.7.1 2.2 5.6 15.8 1.8 19 1 4.8-1.1 4.2 1.4 6.5-5.4.3-.9 1.7-1.1 2-.2.1 0 16.9 2.7 17.5-.1.3-1.2.3 0 .4 1v1.4c0 .5-.3.9-.6 1-3.9 2.2-9.6 1.7-14 1.7-5.8.1-3-4.4-5.7 3.4-.2.7-1 1-1.6.6-5.8-3.9-15.7 1.4-21.9 2-1 0-1.6-2.6-2.2-2.6-2.4-.1-.5 1.9-2.7 2C17-5.2 6-3.3.7.9.2 1.3-.5.5 0 0" clip-path="url(#q)" transform="matrix(1.333 0 0 -1.333 83.5 223.6)"/><path fill="#3d2b5e" d="M0 0a304.5 304.5 0 0 1 11 121.9c-.2 1.7-2.9 1.6-2.8-.2C11 80.2 7 41-.8.2-1-.4-.3-.5 0 0" clip-path="url(#r)" transform="matrix(1.333 0 0 -1.333 142.6 407.6)"/><path fill="#3d2b5e" d="M0 0c7 30 9.5 61.7 11.5 92.5 2 32.6 7.8 64.2 4 97-.2 2-3.3 1.9-3-.1C20.4 126.5 3.7 62.6-.8 0c0-.4.6-.5.7-.1" clip-path="url(#s)" transform="matrix(1.333 0 0 -1.333 120.8 490)"/><path fill="#3d2b5e" d="M0 0c-2.5-31.7-4-63.2-8-94.8 0-.6.8-.8 1-.2C1.4-65-.2-30.8.7 0 .7.5 0 .4 0 0" clip-path="url(#t)" transform="matrix(1.333 0 0 -1.333 117.6 289.9)"/><path fill="#3d2b5e" d="M0 0c-6-40.9-4.7-87-26.1-123.6-1-1.8 2-3.4 3-1.5C-3.6-87.4-2.4-41.6.4 0 .5.3 0 .4 0 0" clip-path="url(#u)" transform="matrix(1.333 0 0 -1.333 107.4 428.5)"/><path fill="#3d2b5e" d="M0 0c6.2 32.2 8.6 66.4 6.8 99.1-.1 1.7-2.6 1.5-2.6-.1C3.8 65.7 2.4 33.3-.6 0c0-.3.5-.5.6-.1" clip-path="url(#v)" transform="matrix(1.333 0 0 -1.333 101.1 365.6)"/><path fill="#3d2b5e" d="m0 0-1.6-4.3C-2-5.5-1.4-7 .1-6.9c-.2 0 34.2-3 63-13.7 2.1-.8 3 3 .7 3.5C59.6-15.9 14.3-3 14-3.9c.3 1-.8 2.4-1.9 2.2-.8-.1-10.3-2.8-9.8.8C2.5.4.5 1.4 0 0" clip-path="url(#w)" transform="matrix(1.333 0 0 -1.333 419 72.9)"/><path fill="#3d2b5e" d="M0 0c3.9-39.2 9.8-75.4 5-115-4.5-36-8-73-19.1-107.7-1-3.3 4.3-4.5 5.3-1.2C3-186.3 7-145.6 10.9-106.6c3.6 36-.8 78.3-8.4 107.7C2.3 2 0 1 0 0" clip-path="url(#x)" transform="matrix(1.333 0 0 -1.333 502.4 98.8)"/><path fill="#3d2b5e" d="M0 0c54.3 18.8 106.4 49 158 74.2 26.6 13 53.1 26 79.6 39.2 24.5 12.2 51.2 21.2 74.6 35.3 3.7 2.3 0 8-3.8 5.8-22.3-13.6-48-22.2-71.4-33.9L157.6 81C105.3 55 48.8 32.6-.7 1.4-1.5 1-.9-.3 0 0" clip-path="url(#y)" transform="matrix(1.333 0 0 -1.333 73.4 598.6)"/><path fill="#3d2b5e" d="M0 0c-37 35.6-84.6 55.2-135.2 61.6-48.5 6-101.8 5.1-145.8-18.5-1.3-.7-1.6-2.4-1.3-3.6l.1-.5c.5-1.7 2.4-2.4 3.9-2l.5.2c3.4.9 2 5.7-1.1 5.8 2.9-3.5 5.9-4.1 9-2a193.7 193.7 0 0 0 25.7 9 224 224 0 0 0 38 7 334 334 0 0 0 75.7-2.1c24-3.2 46.6-10.3 69.2-19C-38.4 27.1-21.1 12-.7-1 0-1.4.5-.5 0 0" clip-path="url(#z)" transform="matrix(1.333 0 0 -1.333 451.8 653.3)"/><path fill="#3d2b5e" d="M0 0c-49.7 14.7-98.4 35.7-147.4 53-29.7 10.3-59.4 20.8-89.3 31-13.4 4.5-29.5 12.7-44 13.5-3.9.2-3.6-6 .4-6.2 14.7-.9 32.3-10 46.3-14.8 29.6-10 59.2-20.4 88.8-30.7C-97.8 29.3-49.5 9-.2-.7c.5 0 .6.6.2.7" clip-path="url(#A)" transform="matrix(1.333 0 0 -1.333 445.9 725)"/><path fill="#3d2b5e" d="M0 0c0 1-1.3 6.6.2 6.9.5 0 1 .5.8 1-1.4 3 .9 5.8 1.2 9.3.3 3-2.3 21 0 21.8 1 .5 1.1 1.8.2 2.5L.9 44c1.4-.2 2.2 1.4 1.3 2.4-.3.2 3.4 5 2.6 4A1.4 1.4 0 0 1 2.4 52l-3.8-3.4c-.9-.5-.8-1.7-.2-2.3l1.9-2 1.2 2.4c-6.2 1-4-5.5-.4-7.7l.2 2.5-2.7-1.2c-.6-.2-1.2-1-.9-1.7 3-6.4 4.5-22.7.2-28.6-.3-.4-.2-1 .2-1.2l-.8-1c-.5-.2-.6-.8-.4-1.2L-.5 0c0-.3.5-.3.5 0" clip-path="url(#B)" transform="matrix(1.333 0 0 -1.333 445.3 723.2)"/><path fill="#3d2b5e" d="M0 0c44.1 10 86.2 31.5 127.4 49.6l133.7 58.8c2 .8-2.6 2.3-4.6 1.4C171.2 72.4 86.6 34.2-.5 1.8c-1.2-.5-.6-2 .5-1.8" clip-path="url(#C)" transform="matrix(1.333 0 0 -1.333 450 653.2)"/><path fill="#3d2b5e" d="M0 0c21.7 5.4 43.1 17.5 63.8 26 28.1 11.8 56.3 23.5 84.5 35.1 25.8 10.7 51.7 21.2 77.4 32 13.6 5.6 28.6 10.4 41.3 18 2.7 1.6.5 6.5-2.5 5.2-40.6-17.2-81.2-34-122-50.8-28-11.6-56.2-23.2-84-35.3C39.4 21.8 15.8 14.5-.7 1.5-1.4.9-1-.2 0 0" clip-path="url(#D)" transform="matrix(1.333 0 0 -1.333 446.4 728.3)"/><path fill="#3d2b5e" d="M0 0c-2.7 2-2.7.5-1.5 2.8.3.7 0 1.3-.7 1.5-1 .8-1 1.7 0 2.8.2.6-.1 1.5-1 1.4-1 0 2 3.3 2.6 5 1.3 2.8 1.7 6.1 1.9 9.2.8 9.8 0 19.8-2 29.4-.1.8-1.3 1.4-2 1l-1.5-.6c-1-.4-1.1-2 .1-2.2C.3 49.6-.3 27-.6 22.6c-.5-6.4-3.7-8.3-5.3-13.8-.2-.7-.3-.6-.2-1.4 0-.5.5-1 1-.9.9-.4.7-1-.6-2-.4-.5 0-1.2.6-1.4l-.1-2c-.6-.6 0-1.8.8-1.7L-.7-1C0-1.2.6-.4 0 0" clip-path="url(#E)" transform="matrix(1.333 0 0 -1.333 801 575.6)"/><path fill="#3d2b5e" d="M0 0c-31.2 33.4-81.4 51.4-123.7 66-22.5 7.6-44.5 15.7-68.3 17.6-9.9.7-19.8.7-29.6.8-5.4.1-11.7 2-16.6-.6-1.8-1-1.8-3.8-.4-5l.6-.5c1.2-1 3-1 4.1.2l.4.4c1.5 1.6.2 5-2.2 4.6l2.3-1.4-2.9-4.1c16.1.3 33.3-.1 49.4-1.8 22.3-2.3 43.6-10.4 64.7-17.5C-78.3 43.8-39.2 21.5-.8-3.7.2-4.4 1-3 .3-2.1z" clip-path="url(#F)" transform="matrix(1.333 0 0 -1.333 800.2 506.1)"/><path fill="#3d2b5e" d="M0 0a2549.7 2549.7 0 0 0 191.3 94.5c2.5 1 1.2 5.1-1.4 4A1500 1500 0 0 1-.4.5C-.7.3-.4-.2 0 0" clip-path="url(#G)" transform="matrix(1.333 0 0 -1.333 199.4 214)"/><path fill="#3d2b5e" d="M0 0c42.2 18.7 86.1 38.1 130 52.5 3 1-2.2 4.5-5.1 3.5C80.7 41.4 40.9 21.8-.4.8-.8.5-.4-.2 0 0" clip-path="url(#H)" transform="matrix(1.333 0 0 -1.333 310.7 164.2)"/><path fill="#3d2b5e" d="M0 0c39.9 17.9 78.8 37.4 119.2 54.2 40.4 16.9 84 33 123.5 51.8 3.3 1.6-2.7 6-6 4.5-40.6-19.3-80.6-35.5-122-52.9C75.6 41.2 34.7 25-.4 1-.8.6-.5-.2 0 0" clip-path="url(#I)" transform="matrix(1.333 0 0 -1.333 179.4 241.8)"/><path fill="#3d2b5e" d="M0 0c9.4 4.4 19.7 8 28.5 13.8.7.5.2 1.7-.7 1.4C18 11.6 9 5.4-.2.4-.5.4-.2 0 0 0" clip-path="url(#J)" transform="matrix(1.333 0 0 -1.333 248.2 163.5)"/><path fill="#3d2b5e" d="M0 0a816.4 816.4 0 0 1 80.5 35.1c3 1.4-3.7 4.8-6.6 3.4C49.2 26.5 23.5 14.5-.5 1-1.2.8-.7-.2 0 0" clip-path="url(#K)" transform="matrix(1.333 0 0 -1.333 325.7 125.5)"/><path fill="#3d2b5e" d="M0 0c6.7 3.2 15 5.8 20.8 10.6.8.6.3 2-.8 1.6C12.8 10.2 6 5-.6 1.2-1.3 1-.7-.2 0 0" clip-path="url(#L)" transform="matrix(1.333 0 0 -1.333 121.2 215.7)"/><path fill="#3d2b5e" d="M0 0c29.7 14.5 60.3 28.2 89.1 44.3 1.4.8.3 3.1-1.2 2.5A597.7 597.7 0 0 1-.6 1c-.7-.4 0-1.3.6-1" clip-path="url(#M)" transform="matrix(1.333 0 0 -1.333 168.7 191)"/><path fill="#3d2b5e" d="M0 0c21.3 8 41.4 19.8 62.1 29.2a3924 3924 0 0 0 80.5 35.9c36.2 15.6 73 34.5 111 45.7 3.6 1 1.8 6.5-1.8 5.4-38.6-11.5-76-31-112.8-47.2a3578.4 3578.4 0 0 1-80-36.4C39 23.3 16.7 15-.9 1.7c-.8-.6-.3-2.1.8-1.7" clip-path="url(#N)" transform="matrix(1.333 0 0 -1.333 83.6 225)"/><path fill="#3d2b5e" d="M0 0c47.7 13.1 94.7 30.9 140 50.6 1 .4.6 2-.5 1.6C93 35 46.1 18.7-.5 1.2-1.1 1-.7-.2 0 0" clip-path="url(#O)" transform="matrix(1.333 0 0 -1.333 464.2 675.5)"/><path fill="#3d2b5e" d="M0 0a1082.6 1082.6 0 0 1 159.8 60.7c1.9 1 .3 4.1-1.5 3.3C106.3 40.9 53.8 18.5-.1.4-.3.3-.2-.1 0 0" clip-path="url(#P)" transform="matrix(1.333 0 0 -1.333 482.6 686.8)"/><path fill="#3d2b5e" d="m0 0 .3.8L.5 2c-.4.7-1.1 1.1-2.1.6C-12.7-3.5-25.6-6.6-37-12c-.6-.3-.4-1.2.3-1C-24.5-9.2-12.7-2.8-.3-.1L0 0" clip-path="url(#Q)" transform="matrix(1.333 0 0 -1.333 802.4 549.5)"/><path fill="#3d2b5e" d="M0 0c-.2-1.5 0 .2 0 .5l-.1 1.8v.5c-.2 0-.4 0-.6-.2a443.7 443.7 0 0 1-36-17c-.3-.2 0-.9.4-.7 12 4.8 24 9.3 36.3 13.2V0" clip-path="url(#R)" transform="matrix(1.333 0 0 -1.333 801.2 525)"/><path fill="#3d2b5e" d="M0 0c9 4.2 20.5 9.6 30.7 8.8 3.4-.3 2.3 6.2-1.3 4.1-4.9-2.9-11.5-4.6-16.8-6.6C8.2 4.5 4 2.6-.2.4-.4.3-.2 0 0 0" clip-path="url(#S)" transform="matrix(1.333 0 0 -1.333 757.5 533)"/><path fill="#3d2b5e" d="M0 0c-21 15-43.2 27.4-68 34.9-27.3 8.1-58.6 16.2-87.2 14.5-1.4 0-1.7-2.2-.2-2.5 26.7-5.3 53.6-7 80.2-14.2C-47.7 25-25.5 12-.4-.5c.3-.2.7.3.4.5" clip-path="url(#T)" transform="matrix(1.333 0 0 -1.333 429.4 655.1)"/><path fill="#3d2b5e" d="M0 0a211 211 0 0 1-87.4-3c-2.6-.6-2.3-4-.4-5.2.4-.3.9-.4 1.4-.5 1.5-.5 2.9 1.6 2 2.8-3.7-3.7-2.1-4.2 4.6-1.5l13.2 2.3c6.6 1 13.2 1.8 19.9 2.4 15.5 1.4 31 1.3 46.6 1.4C.6-1.3.7 0 0 0" clip-path="url(#U)" transform="matrix(1.333 0 0 -1.333 205.7 588.7)"/><path fill="#3d2b5e" d="M0 0a39.9 39.9 0 0 1-14.9 6.9c-1 0-1.6-1.2-.6-1.8 2.3-1.2 5-2 7.5-3S-3.1 0-.7-1.4C.2-2 .9-.6 0 0" clip-path="url(#V)" transform="matrix(1.333 0 0 -1.333 431.2 676)"/><path fill="#3d2b5e" d="M0 0a293.2 293.2 0 0 1-92.4 30c-2.8.3-3.8-3.7-1-4.3C-61.9 18.4-30.4 11.5 0 0" clip-path="url(#W)" transform="matrix(1.333 0 0 -1.333 382.5 660.9)"/><path fill="#3d2b5e" d="M0 0a847 847 0 0 1-106.3 18.6c-3.7.5-5-5.3-1.3-5.7C-71.8 8.4-36.2 2-.5-2.1 1-2.2 1.3-.4 0 0" clip-path="url(#X)" transform="matrix(1.333 0 0 -1.333 230 618.3)"/><path fill="#3d2b5e" d="M0 0c-12 4.7-25.6 7.7-38.5 8.3-.9 0-1-1.3-.1-1.5C-26 3.9-13.2 1.3-.6-1.4.4-1.6.9-.4 0 0" clip-path="url(#Y)" transform="matrix(1.333 0 0 -1.333 425.7 693)"/><path fill="#3d2b5e" d="M0 0c-31 10.2-61.3 22.7-93.1 30.3-33 7.9-62.6 18-94 31.1-2.9 1.2-5-2.7-2.2-4.2 26.9-16 58-24.2 88.3-30.7C-67 19.3-33.4 9 0-.5c.3-.1.4.4.1.5" clip-path="url(#Z)" transform="matrix(1.333 0 0 -1.333 337 674.9)"/><path fill="#fff" d="M0 0s.7-42.1 7.9-48.4c7.1-6.3 39.7-8.7 38-19-1.5-10.1-30.7-12.5-59.7-6-29 6.3-15.2 18-15.8 23.3-.6 5.3-15 47.4-15 47.4z" clip-path="url(#aa)" transform="matrix(1.333 0 0 -1.333 1022.1 636.8)"/><path fill="#3d2b5e" d="M0 0c3.6-10.5 13.5-40 14-44.7.3-1.8-.5-3.7-1.2-5.7-1.1-2.7-2.2-5.4-1-7.8 1.2-2.1 5-5.2 16-7.7 22.8-5 46.2-4.5 54.3 1 1.4 1 2.2 2 2.4 3 .6 4-11.8 7.5-20 9.8-7.5 2.1-14 4-17.3 6.8-6.9 6-8.4 36.6-8.7 47.6zm58.2-74.6A150 150 0 0 0 26.7-71c-10.8 2.4-17 5.7-19.5 10.3-2.4 4.6-.6 9 .7 12.2.4 1.1 1 2.7 1 3.2-.4 3.7-9.2 30-15 46.9l-1 3.2 50.7 3V5.1c.4-17 2.8-42.7 7-46.5 2.4-2 9-3.9 15.4-5.7 12.3-3.4 25-7 23.6-15.6-.4-2.5-1.9-4.7-4.5-6.5a52 52 0 0 0-27-5.4" clip-path="url(#ab)" transform="matrix(1.333 0 0 -1.333 967.4 643.5)"/><path fill="#fff" d="M0 0s2.8 40 7.6 46.4c4.8 6.4 14.4 23.8-2.2 31.5-20 9.4-53.7 5.2-58.8 2.2-5-3 16.6-19 23.1-22 6.6-2.8-13.3-52.9-13.3-52.9z" clip-path="url(#ac)" transform="matrix(1.333 0 0 -1.333 1002.3 311.2)"/><path fill="#3d2b5e" d="m0 0 37.5-4.5c.8 10.5 3.4 39 8 45 3.8 5.2 7.8 13.5 6.2 19.7-.9 3.4-3.3 6-7.4 8-18.3 8.4-49.1 5.3-55.7 2.6 2-4 16-15 22.1-17.6C16.4 50.7 12.8 32.8 0 0m42.4-10.3-49.8 6 1.3 3c8.3 20.9 16 45.5 14.4 49.8-5.4 2.6-24.7 15.6-25.1 22.6a4 4 0 0 0 2 3.8c5.8 3.5 40.4 7.7 61.3-2 5.6-2.6 9-6.4 10.3-11.4 2.5-10-4.9-21-7.2-24.1-3.1-4.3-6-29.9-7-45Z" clip-path="url(#ad)" transform="matrix(1.333 0 0 -1.333 949 301.3)"/><path fill="#fff" d="M0 0s-11.7 124.9-53.9 128.3c-42.2 3.3-54-81.2-54-81.2l-98.2-68.5-3.5-19.7s-86.3 18-93.5 7.3c-7.3-10.7-28.8-19.7-10.6-50.6 18.1-30.9 81.5-92.5 121.5-96.6 40-4 143.6-15.6 150.3-14.4 6.8 1.1 98.5 71 98.5 71l-53 77.3Z" clip-path="url(#ae)" transform="matrix(1.333 0 0 -1.333 600.9 333.2)"/><path fill="#3d2b5e" d="m0 0-.7.1C-3.2 1-3.6 3.4-5 18.4c-3 30.8-10 103-49.1 105-11.3.6-21-3-29-10.8-27.9-27-27-94.7-27-95.3 0-1.4-1-2.5-2.4-2.5-1.3 0-2.4 1-2.4 2.4-.1 2.8-1 70.5 28.4 98.9A42 42 0 0 0-54 128.3C-10.5 126-3.5 53.6 0 18.8c.5-5.7 1-11.5 1.6-14l.5-.2c1-.9 1.2-2.4.3-3.5A3 3 0 0 0 0 0" clip-path="url(#af)" transform="matrix(1.333 0 0 -1.333 600.9 333.2)"/><path fill="#231f20" d="M0 0h-.2a2.4 2.4 0 0 0-2.2 2.7l6.5 70a2.4 2.4 0 1 0 4.8-.4l-6.4-70A2.4 2.4 0 0 0 0 0" clip-path="url(#ag)" transform="matrix(1.333 0 0 -1.333 514.1 326.4)"/><path fill="#3d2b5e" d="M0 0h-.9C-35.7 7-133.4 54-157.3 101.7c-6.6 13.3-7.2 25.7-1.8 37 22.5 46.6 133.7.3 138.5-1.7a2.4 2.4 0 0 0-2-4.5c-1 .5-111.6 46.6-132 4-4.8-9.8-4.2-20.8 1.7-32.6C-129.7 57.3-34.1 11.6 0 4.8A2.4 2.4 0 0 0 0 0" clip-path="url(#ah)" transform="matrix(1.333 0 0 -1.333 386.5 584.2)"/><path fill="#3d2b5e" d="m0 0 3 6.3c-35 16.3-99 40.3-99.4 40.5l16-8.6C-80 38-35 16.2 0 0" clip-path="url(#ai)" transform="matrix(1.333 0 0 -1.333 360.4 486.5)"/><path fill="#3d2b5e" d="m0 0 7 .1-1.8 118L1 103Z" clip-path="url(#aj)" transform="matrix(1.333 0 0 -1.333 532 366.7)"/><path fill="#3d2b5e" d="M0 0s-96.2 11.2-115 60.1c-14 36.3-27.4 105.4-27.4 105.4l-69.7-29.4s27.5-35.3 20.5-57.7c-7-22.5-5-41-5-41s38.7 11.8 34.8-19.2c-4.5-35-48-43.6-63.3-26.7-13.8 15.2 9.5 22.7-9.6 34.8a901 901 0 0 1-70.7 35.6l-49.2-91.5s65.6-34.5 200-86c74.1-28.5 177.5-3 177.5-3z" clip-path="url(#ak)" transform="matrix(1.333 0 0 -1.333 797.7 534.2)"/><path fill="#fff" d="m0 0 1.8-2c15.7-18 26.9-29.7 42.7-37.7C61-48 118.1-67.4 89.2-128.9 55.6-200.7-4-184.2-4-184.2s-2-39-36.5-27.6c-34.4 11.2-26 38-18.5 40a1430 1430 0 0 0 34.6 8.4L-79-139.6s-35 11.7-34 13.7 13.5 43 13.5 43 31.6 32 32.7 33.8c1.1 1.8 20.5 40.8 20.5 40.8l15.5 12.5" clip-path="url(#al)" transform="matrix(1.333 0 0 -1.333 497.9 275.9)"/><path fill="#3d2b5e" d="M0 0c10.3-3.2 18.9-2.5 25.6 2.1C35.3 8.7 38.2 21.4 39 27.2c12.8-2.2 63.4-6.4 93.3 57.3 8.7 18.7 10.5 35.4 5.3 49.6-8.4 23-33 34.5-46.2 40.7l-5 2.4c-16 8-27.5 20.4-42 37l-1.8 2-4-3.4 1.9-2c14.8-17 26.7-29.8 43.5-38.3l5.2-2.5c13.4-6.2 35.8-16.6 43.5-37.6 4.7-13 3-28.3-5.2-45.7C95.3 18 39.7 32.3 37.4 33l-3.1.9-.2-3.3c0-.2-1-17-11.5-24C17.2 2.6 10 2.2 1 5.1c-21.5 7-23.6 19.5-23.4 24.6 0 6.1 3.1 10 4.8 10.5 7.4 2 34.1 8.2 34.4 8.3l7.7 1.7-61.7 27a315.6 315.6 0 0 0-32 12c2.5 7.3 10 32 12.8 41 9.8 10 31.4 31.9 32.6 33.8 1.1 1.8 17.4 34.6 20.3 40.5l15.1 12-3.2 4.2-16-12.9-.3-.5c-7.7-15.5-19.5-39.2-20.4-40.6-1.3-1.8-20.5-21.3-32.3-33.2l-.5-.5-.2-.6C-66 117-73.8 91.7-74.6 89.8c-.4-.7-.4-1.6 0-2.4.4-1.1 1.4-3.6 35.5-14.9l47-20.6c-8.6-2-21.9-5.1-27-6.6-4.7-1.3-8.4-8-8.6-15.4-.1-6.2 2.2-21.6 27-29.7L0 0" clip-path="url(#am)" transform="matrix(1.333 0 0 -1.333 443.7 562)"/><path fill="#3d2b5e" d="M0 0c23.2-8.9 37.4-21 36.4-56.9 0 0-20.3 27.4-52.3 24.3 0 0 23-4.3 31.4-41 0 0-37.8 15-55.1-13.4-8.8-14.4-21.8-16.7-21.8-16.7s26.9 19.5 45.6-16.2c0 0-19.6 7-22.4 2.2 0 0 24-.3 36-17.6 0 0-8.3 6.8-11.4 4.1 0 0 16.5-13 24-31.9 0 0-45.7 1.2-48.1-16.1-2.4-17.3 17.6-25.2 17.6-25.2s-29.9-8.2-50 5.6c0 0 10.4-11.7 17.7-12.5 0 0-41.7 4.6-45 37.7a314.5 314.5 0 0 0-1.6 21.2s-12.3-12.5-10.5-23.9c0 0-11 14.7 1.1 29.9 0 0-17.8-3.4-24.6-15.5 0 0 1.8 19.9 18.5 28.4 0 0-19.7 7-20.4 15.7 0 0 17.4-7 22.5-6 0 0-23.6 25.1-22 56.1 0 0 9.4-17.6 14.8-20.6 0 0-14 31.3-2.9 60.5A100.5 100.5 0 0 0-87.2 17S-96-4.5-94.6-14.7c0 0 14 57 79 69.7 0 0-11.7-12.7-9.3-16.4 0 0 23 18 62.9 12.2C61.8 47.3 81 21.4 81 21.4s-28 9.5-32.9 4c0 0 32.8-9.6 34-47.5z" clip-path="url(#an)" transform="matrix(1.333 0 0 -1.333 467.6 283.5)"/><path fill="#3d2b5e" d="M0 0c6.6-2 16 .8 18.5 7.7 1.6 4.4 1.4 8-.6 11-4.2 6.4-15.2 6.9-21.7 7.2-1.4 0-7.5 1.4-8 1.6 0 0 2.5-5.6 7.7-6.8 5.1-1.2 15-.7 17.7-4.9 1-1.5 1-3.6 0-6.3C12.1 5.5 0 0 0 0" clip-path="url(#ao)" transform="matrix(1.333 0 0 -1.333 555.2 398.2)"/><path fill="#3d2b5e" d="M0 0s-.7 20.6 5 29c2.5 3.7 6.6 6.1 11 6.4l-.3 5.2C9.7 40.3 4 37 .6 31.8-3 26.6-6 16.8 0 0" clip-path="url(#ap)" transform="matrix(1.333 0 0 -1.333 463 416.1)"/><path fill="#3d2b5e" d="M0 0c5.5 4.4 9 5.7 20.6-.2l-.8 4.7c-13.4 6.8-16 5.3-23-.4Z" clip-path="url(#aq)" transform="matrix(1.333 0 0 -1.333 517 324.5)"/><path fill="#3d2b5e" d="M0 0c-2 7.9 1.2 15.4 2.8 17 2.4 2.6 6.2 3.7 9.1 2.8 1 3-1.5 5.9-4.5 5.4-3-.6-6.3-2-8.4-4.5C-9 11.1 0 0 0 0" clip-path="url(#ar)" transform="matrix(1.333 0 0 -1.333 508 418.6)"/><path fill="#3d2b5e" d="M0 0c-.7 1.7-.3 4.8 1.6 7 1.2 1.3 4 4.5 7.5 3.5l.8 3.2c-4.7 1.3-9.2.1-12.2-3.3-1.6-1.7-2.6-4-3-6.2C-6 1.2-2.8-1 0 0" clip-path="url(#as)" transform="matrix(1.333 0 0 -1.333 560.9 352)"/><path fill="#3d2b5e" d="M0 0a33 33 0 0 1 16.6-.4c11.9 2.4 20.2 13.6 25 28a36.5 36.5 0 0 0-26-22.9C1.4 1.8-5.1 7.7-9.1 13c0 0-3.8-1.8-1.4-5.6C-9.2 5.4-4 1.6 0 0" clip-path="url(#at)" transform="matrix(1.333 0 0 -1.333 530.4 458.8)"/><path fill="#3d2b5e" d="M0 0c2.8-.1 5.1 1.6 6.3 4 3.2 6.8 13 11.5 25 11.4 0 0-27.6 9.3-31.3-15.4" clip-path="url(#au)" transform="matrix(1.333 0 0 -1.333 435.7 536.6)"/><path fill="#3d2b5e" d="m0 0 2.3-.6S-3.5 7.2-5 9.6C-6.2 12-6.3 15-5 18.7l-5 1.7c-1.7-5.1-1.6-9.6.6-13.4A16 16 0 0 1 0 0" clip-path="url(#av)" transform="matrix(1.333 0 0 -1.333 463.5 544)"/><path fill="#e44b59" d="m0 0 5.4 9 .6.8.6 1L9.3 15c29.1 44.1 96.2 151.8 109 185a3 3 0 0 0 4 1.7l48.5-17.7s-38-116-40.8-116c-21 1.2-42-7.2-60.5-17.6l-.5-.2A165.8 165.8 0 0 1 15.8 2.9C43 28.2 63.8 46 93 57.2c15 7 33.7 11.6 41.5 8.9 22.4-7.9 50.2-80.4 53.8-135 1-14.7-57-15-57-15L107-37.5c-36.2-67.5-88-68.3-88-68.3S3.5-103-4.3-81.6A91.3 91.3 0 0 1 5-105c.5-1-.5-1.7-1.4-1.3a35 35 0 0 0-17.6 25l-1.6-6.3c-.1-.4-.4-.7-.7-.9v-.2c0-1.4-2-2.3-3-1-9.2 11-6.1 27.5-2.8 40.4 2.6 9.8 6.1 20.1 11.3 29.3C-7.4-13-3.7-6.3 0 0" clip-path="url(#aw)" transform="matrix(1.333 0 0 -1.333 785.2 554.1)"/><path fill="#fff" d="M0 0c1.7 1.8 4.9-.3 4-2.6C-1.3-17.9-12.4-30.7-7.1-48c.6-2-2.4-3-3.3-1.3C-19-32.8-12.2-12.9 0 0" clip-path="url(#ax)" transform="matrix(1.333 0 0 -1.333 752.4 554.5)"/></svg>